<?xml version="1.0" encoding="utf-8"?>
<!-- Generator: Adobe Illustrator 25.0.1, SVG Export Plug-In . SVG Version: 6.00 Build 0)  -->
<svg version="1.0" id="Layer_1" xmlns="http://www.w3.org/2000/svg" xmlns:xlink="http://www.w3.org/1999/xlink" x="0px" y="0px"
	 viewBox="0 0 942.3 600.2" style="enable-background:new 0 0 942.3 600.2;" xml:space="preserve">
<style type="text/css">
	.st0{fill:#B42375;}
	.st1{fill:#55752B;}
	.st2{fill:none;}
</style>
<path class="st0" d="M163,375.5c0-0.7-0.2-1.3-0.2-2c-0.2-0.9-0.2-1.7-0.4-2.8s-0.6-2.6-0.9-3.7c-0.2-1.3-0.4-2.6-0.6-3.9
	c-0.2-1.5-0.7-3-0.9-4.6c-0.2-1.6-0.7-3.3-0.9-4.8c-0.3-1.6-0.5-3.2-0.7-4.8c-0.5-1.8-1-3.6-1.3-5.4c-0.4-1.7-0.6-3-1.1-4.8
	c-0.4-1.5-0.6-3.5-1.1-5c-0.9-3.9-2.1-7.2-3-11.1c-0.7-3.6-1.6-7.2-2.8-10.6c-0.9-2.8-1.5-6.1-2.4-8.9c-1-3-1.4-6.2-1.3-9.4
	c-0.2-3.3,0.2-6.3,0-9.6c-0.2-2.2-0.9-4.6-0.9-6.7c-0.2-2.8,0-5.2-0.4-8c0-0.2,0-0.5-0.2-0.6c-0.4-1.7-2.1-4.8-6-8.3
	c-0.9,0.6-1.1,1.3-2.1,1.7s-2.8,1.1-4.1,1.5c-1.1,0.2-2.4,0-3.6,0.2c-1.5,0.7-3.1,1-4.7,0.9c-1.3,0.1-2.6-0.1-3.9-0.4
	c-1.3-0.2-2.6-1.3-3.7-1.7c-1.1,1-1.9,2.2-2.6,3.4c-0.9,1.5-1.7,3.1-2.2,4.8c-0.8,2.2-1.2,4.6-1.3,7c-0.6,2.2-0.9,4.5-1.1,6.7
	c0,0-0.4,1.5-0.2,8c0,1.7-0.2,3.9-0.2,5.9c0,2.4,0.4,4.8,0.7,7.2s0,4.6,0.2,7c0.2,2.6,0.4,5.4,0.7,8c0.2,3,0.9,5.6,1.1,8.7
	c0.2,2.4,0,5.2,0.2,7.8c0.2,3,0.9,6.5,1.1,9.6s0,5.9,0.2,8.9c0.2,2.6,0.9,5.4,1.1,8c0.2,2.4-0.2,4.6,0,7c0.2,3.7,0.4,5.2,0.6,8.9
	c0,0.6,0.7,4.6,0.7,5.4c0.2,2.8-0.2,4.8-0.2,7.6c0,2.2,0.2,4.6,0,7s-0.2,11.1-0.2,12.8c0,3,0.2,5.4,0.4,8.7c0.2,2.4,0,4.8,0.2,7.2
	s0.9,5,1.3,7.6c0.4,2.4,0.2,5,1.1,7.4c0.7,2.8,2.2,7.6,5.8,7.2c3-0.4,4.3-1.5,5.6-4.3c0.8-2,1.3-4.1,1.5-6.3c0.4-1.5,1.3-3,1.7-4.6
	c0.6-2.8,0.9-6.3,1.5-9.1c0.9-4.3,1.9-8,2.8-12.4c0.4-3,0.4-5.6,1.1-8.7c0.4-2.2,1.5-7.4,1.7-8.9c0.2-2.2,0.9-5.4,0.9-5.7
	c0.3-2.5,0.4-4.9,0.2-7.4c0-2.6-0.2-5.1-0.6-7.6c0-0.6-1.3-8.3,0-8.5c1.1-0.2,2.2,6.1,2.4,6.5c0.3,2.1,0.8,4.3,1.5,6.3
	c1.3,3.7,3,7,4.3,10.7c1.3,3.3,2.2,6.7,3.4,9.8c0.9,1.7,2.1,3.7,3,5.6c1.5,3.3,2.4,6.3,4.5,9.1c0.9,1.1,3.2,3.7,4.7,2.2
	c0.2-0.5,0.4-1,0.4-1.5c0.2-0.9,0.2-1.9,0.2-2.8c0-1.3,0.2-2.6,0.2-3.9v-4.6c0-1.6-0.2-3.2-0.4-4.8c0-1.7,0.2-3.5,0.2-5.2v-3.9
	c0-1.5-0.2-4.1-0.2-5.6c0-1.3-0.2-2.6-0.2-3.9c0-1,0-2-0.2-3C163.3,377.3,163.1,376.4,163,375.5L163,375.5z M176.8,351.8
	c-1.3-1.3,0.6-14.6,1.3-18.9c0.7-4.6,1.5-12.6,1.5-14.1s0.2-10.9,0.6-14.1c0.4-3.3,0.9-8.5,1.5-13.3c0.4-3,1.5-11.8,1.5-13.5
	s0.9-8.5,1.3-10.9c0.2-2.4,1.9-5.4,3-6.1c1.9-1.3,7.3-0.9,8.4-0.4c1.9,0.4,5.4,5.7,5.8,6.5c1.3,2,5.2,6.7,5.6,8.3
	c0.6,1.5,4.3,7.6,5.2,10c1.3,2.6,2.6,4.1,3.7,6.3c1.3,2.2,4.5,9.1,4.5,9.1s4.7-6.7,6-9.8s4.7-7.8,6-10.4s5.8-11.3,6.4-12.2
	c1.3-1.7,2.6-5,5-6.7c2.4-2,4.5-1.3,7.3-1.1c1.3,0.1,2.6,0.5,3.7,1.3c1.5,0.9,2.6,8,2.8,10.2s1.3,13.9,1.5,15.4s1.5,8,1.7,10.7
	c0.2,2.4,0.6,15.7,1.3,19.6s0.9,11.1,1.3,13.3s1.5,12,1.5,13s1.3,7.8,0.2,8c-0.9,0.2-10.1,0.6-11.8,0.9s-5.8,0-7.3,0s-3-0.2-3-2.6
	s0.2-12-0.6-16.3c-0.9-4.1-2.4-15.4-2.4-17.2s0.6-5.6-1.3-5.2c-1.7,0.7-5.4,10.7-6.9,13c-1.3,2.2-4.7,7.2-4.7,7.2l-3.7,7.2
	c0,0-2.1,2.6-3.2,2.4s-2.4-6.3-4.5-9.4c-2.2-3.2-4.1-6.7-5.6-10.2c-0.9-2.2-3.2-7-4.5-8.5s-2.2-3.7-3-3.9s-2.1-1.3-2.4,0
	s-1.5,15.9-1.5,15.9s-0.9,11.1-0.9,12.4s-0.2,8.7-0.2,8.7s1.3,5-1.1,5.4C195.5,352.5,178.1,353.1,176.8,351.8z M350,286.3
	c-0.6-3-2.4-9.6-3.4-11.5c-1.3-2-4.1-6.8-5.2-7.6c-1.9-1.3-3.9-2.4-6-3.5c-3.3-1.3-6.7-2.2-10.1-2.8c-3-0.4-5.2-0.2-8-0.4
	c-2.6,0-5.2-0.2-9.5-0.4c-4.3-0.2-5-0.4-7.5-0.4c-2.2,0-4.5,0-6.7,0.2c-1.9,0.2-7.3,0.6-8.4,0.9c-1.1,0.2-1.5,2.2-1.5,3.5
	s0.2,4.1,0.2,5.9v8.7c-0.1,2.8,0.1,5.5,0.4,8.3c0.2,1.7-0.4,6.5-0.4,7.8s0.4,5.6,0.2,7c0,1.3-0.2,7.2-0.2,8s0.6,7.6,0.6,8.5
	s0,6.5-0.2,8.3c-0.2,1.5,0,7,0,7.8s0.2,3,0.2,3.9s0,5.4-0.2,6.5c0.1,1.9,0.5,3.9,1.3,5.6c0.9,1.5,3.4,1.3,3.4,1.3h7.3
	c1.7,0,6.9,0,8.6-0.2c1.5-0.2,1.1-2,1.3-2.2c0-0.2-0.2-3.7-0.2-4.6v-4.8c0-2.4-0.2-4.8-0.2-6.3c0-2.5,0.2-4.9,0.4-7.4
	c0-0.6-0.2-2.8,0.2-2.8c0.4,0,2.6,0,4.9,0.2c1.9,0,3.8-0.1,5.6-0.4c1.7-0.2,3.4-0.4,6-0.9s8.2-1.5,10.8-2.6s9.9-4.8,12.3-7.6
	c2.4-2.6,4.5-11.1,4.7-13.7C351,294.5,350.7,290.4,350,286.3z M332.3,295.3c-0.2,1.1-0.4,4.1-1.7,5.9c-0.8,0.9-1.7,1.7-2.6,2.4
	c-0.9,0.9-3,1.5-4.5,2.2c-1.4,0.5-2.8,0.9-4.3,1.1c-1.1,0.2-2.3,0.3-3.4,0.4c-1.7,0.2-3.5,0.2-5.2,0.4c-1.6,0.4-3.2-0.1-4.3-1.3
	c0,0,0.2-5,0-7.2s-0.6-5.7-0.6-6.8s-0.2-4.4-0.2-5.6c0.1-2.2,0.1-4.4,0-6.5c-0.2-1.1-0.2-2.8,0.6-3.3c0.9-0.4,7.5-0.9,9.7-0.4
	c2,0.3,4,0.7,6,1.3c1.7,0.6,2.8,0.6,4.1,1.5c1.4,0.9,2.6,2,3.7,3.3c0.6,0.9,1.9,2.4,2.1,3.5c0.5,1.7,0.8,3.4,0.9,5.2
	C332.6,292.6,332.5,294,332.3,295.3z M368.3,350.3c0,0-0.6-10.9-0.6-13.9c0,0,0.6-19.8,0.4-21.8s-0.4-15-0.4-16.8s-0.2-6.7,0-8.9
	c0.3-2.3,0.2-4.7-0.2-7c-0.2-1.7-0.6-14.1-0.4-15.9s1.3-6.1,1.3-6.1c1.7-0.4,3.4-0.6,5.2-0.7c2.6,0,11.6-0.2,14.8,0s8.2,0,10.5,0
	s8-0.2,10.1-0.2s3.6-0.7,7.7-0.2c2.1,0.3,4.3,0.3,6.5,0.2c2.4,0,4.3,0,4.5,0.9s0.4,5.6,0.6,6.5s-0.4,5.7-0.2,7s0.6,2-0.9,2.6
	s-11.6,0.2-13.5,0.2s-10.5,0.6-13.1,0.4s-9.3-0.2-11-0.2s-2.1-0.2-2.6,0.6s0,6.7-0.2,7.8s0.6,5,0.6,5s0.2,1.1,1.9,1.3
	c1.5,0.1,3,0.1,4.5,0c1.6,0.1,3.2,0.1,4.7,0c2.4-0.2,3,0,6-0.2c1.7,0,3.3,0.2,5,0.4c2.6,0.2,1.7,0,4.1-0.2s1.3,0,4.1-0.2
	s3.6,0.2,5.2,0.2s1.7,2.4,1.9,3c0.2,1.1,0.4,5.4,0.4,6.1s-0.6,6.7-0.6,6.7c-2.9,0.2-5.7,0.3-8.6,0.2c-3.7-0.2-6.7,0.2-9,0.2
	s-5.6,0.2-7.8,0.2s-9.9-0.4-10.8-0.4s-1.5,1.7-1.5,2.2v12.2c0,0.9-0.6,6.5-0.4,7.2c0.2,0.7,0.2,1.4,0.2,2.2c0,0-0.2,1.3,1.3,1.3
	h15.5c3,0,14.8,0.9,16.8,0.7s6.2-0.7,7.1-0.4c0.8,0.3,1.4,0.9,1.7,1.7c0.2,0.6-0.4,7.4-0.2,7.8c0.2,2.2,0.3,4.4,0.2,6.5
	c-0.1,0.8-0.3,1.5-0.6,2.2c-0.9,0.4-1.8,0.6-2.8,0.6c-1.7,0-3.7,0.2-6.7,0.2s-23.2-0.2-25.2-0.2h-9.2c-2.2,0-1.7,0.2-6,0.2
	C374.5,351.7,371.1,353.2,368.3,350.3L368.3,350.3z M613.3,348.5c0,0-0.7-9.6-0.7-12.6c0,0,0.7-19.8,0.4-21.8s-0.4-15-0.4-16.8
	s-0.2-6.7,0-8.9c0.3-2.3,0.2-4.7-0.2-7c-0.2-1.7,0-4.1,0-6.8c0-3-0.7-7.6-0.4-9.4s0.4-3.5,1.9-5s1.9-1.7,4.5-1.5s11.6-0.2,14.8,0
	s8.2,0,10.5,0h9.9c2.7-0.3,5.5-0.3,8.2,0c2.1,0.2,4.3,0.2,6.5,0c2.6-0.2,4.7,0.2,5.2,1.1s0,5,0,6.1s-0.4,5.7-0.2,7s0.7,2-0.9,2.6
	s-11.6,0.2-13.5,0.2s-10.5,0.6-13.1,0.4s-9.3-0.2-11-0.2s-2.2-0.2-2.6,0.6s0,6.7-0.2,7.8s0.7,5,0.7,5s0.2,1.1,1.9,1.3
	c1.5,0.1,3,0.1,4.5,0c1.3,0,2.4-0.2,4.7-0.2c2.1,0.1,4.2,0.1,6.2,0c1.5-0.1,3-0.1,4.5,0c1.5,0.1,3,0.1,4.5,0c2.6-0.2,2.6,0.2,5.4,0
	s3,0.2,4.3,0c2.2,0,1.5,3.3,1.7,3.9c0,1.9,0,3.8-0.2,5.6c0,0.6,1.1,5.4-0.4,6.5c-1.9,1.3-5.8,0.9-9.5,0.6s-5.8,0-8,0
	s-5.6,0.2-7.7,0.2s-8.2,0.4-9,0.4c-2.6-0.2-2.6,0.9-2.6,1.5c-0.2,0.9-0.4,10.7-0.4,11.5s-0.4,6.7-0.2,7.4c0.1,0.8,0.1,1.6,0,2.4
	c0,0-0.2,1.3,1.3,1.3h15.5c3,0,14.8,0.9,16.8,0.7c2.4-0.2,4.7-0.2,7.1,0c1.1,0.2,1.5,1.5,1.7,2.2s0,7.2-0.2,7
	c-0.2-0.4,0.2,5.7,0.2,6.5c-0.1,0.8-0.3,1.5-0.7,2.2c-0.9,0.4-1.8,0.6-2.8,0.6c-1.5,0-3.5,0.9-6.5,0.7h-11c-6.5,0-13.3-0.7-14.4-0.7
	c-1.9,0-7.1,0.4-9.3,0.4s-1.7-0.2-6-0.2S616,352.7,613.3,348.5L613.3,348.5z M522.7,349.4c-0.7-1.2-1.5-2.3-2.6-3.3
	c-1.3-1.1-1.3-2.2-2.6-3.5s-3.2-5.2-4.1-6.3c-1.1-1.1-1.1-1.5-3.2-4.1c-1.7-1.7-3.2-3.6-4.5-5.6c-1.1-1.5-4.5-4.8-4.1-4.8
	s6.9-8.9,7.5-9.6c1.3-1.8,2.4-3.6,3.2-5.6c0.4-1.3,1.3-3.9,1.7-5.4c0.2-1.4,0.3-2.9,0.2-4.4v-5c0.1-1.7,0.1-3.5-0.2-5.2
	c-0.2-1.5-0.2-5.9-1.1-8c-0.7-2.2-2.4-5.9-2.8-7.2s-6-5.2-6.5-6.5c-0.6-1.3-3.7-2.6-6.7-3.3s-3-0.2-5.2-0.9s-3.2-0.4-6-0.6
	s-9.5-0.2-11.8-0.4s-19.1-0.2-21.3,0s-3,0.2-3.2,1.7c-0.2,4.2-0.2,8.4,0,12.6c0.2,4.6,0,9.3-0.4,13.9c-0.4,3.7,0.6,10.4,0.6,12.6
	s-0.2,12.8-0.2,13.9c0,1.3,0.2,12-0.2,13.9c-0.4,1.7,0,12,0.2,14.6s-0.4,8.5,0.9,9.1s6.5,0.4,8.2,0.4s4.1,0.2,7.3,0.2
	s4.5-0.2,5.6-0.6s0-4.6,0.2-5.7s-0.6-7.8-0.2-10c0.2-2.2,0.4-10.9,0.6-11.5s1.1-0.6,1.7-0.9c1.9-0.1,3.8,0.1,5.6,0.6
	c1.3,0.2,2.6,3.3,3,3.5s2.6,3.7,5.2,6.5c2.4,2.8,9.9,12.6,11.8,14.4s1.7,2.8,3.7,3.3c1.2,0.3,2.4,0.3,3.7,0.2c1.3-0.2,5.8,0,7.3,0
	s7.8-0.2,8.6-0.2C522.9,351.3,522.9,350.3,522.7,349.4L522.7,349.4z M495.1,294.4c-0.2,1.7,0.2,1.7-0.9,4.1c-1.1,2.2-2.1,3.5-2.8,5
	c-0.9,1.5-4.7,3.3-6.2,3.5s-5.8,0.9-7.3,0.9c-2,0-4-0.2-6-0.6c-0.6-0.2-2.1-10.4-1.9-12.4c0.3-3.2,0.4-6.4,0.2-9.6
	c-0.2-2.8-1.1-7-0.2-7.6s3.7-0.4,5.8-0.2c2.4,0.2,7.5,0.4,11,2c3.4,1.7,5.4,2.4,6.5,4.6s1.5,2.4,1.7,4.8
	C495.2,291.3,495.6,292.6,495.1,294.4L495.1,294.4z M537.5,350.7c-0.4-0.6-1.3-15-1.3-17s-0.4-24.8-0.4-26.8s0.7-14.4,0.4-16.5
	c-0.2-1.4-0.2-2.9-0.2-4.4v-5.2c0-1.7-0.4-8.5-0.2-10c0.3-1.9,0.2-3.8-0.2-5.6c-0.4-1.5,0.9-4.6,2.1-5.2c1.3-0.6,18.3-0.7,21.1-0.4
	s6.5,0.6,9.9,0.6c3.5,0,12.9-0.2,15.7-0.4s7.1-0.2,8.6-0.2s2.4,3.9,2.4,5s-0.2,5.4-0.2,6.3c0.1,1.4,0.1,2.8,0,4.1
	c-0.2,0.4-0.2,2.2-0.7,2.2s-4.3,0.2-5.8,0.2s-4.3-0.2-6-0.2s-9,0.2-10.5,0.2h-15c-0.6,0-0.4,1.7-0.9,3c-0.4,2.3-0.5,4.7-0.2,7
	c0.2,0.4,0,3.3,1.3,3.7c2.6,0.5,5.3,0.7,8,0.6c2.4,0,4.5-0.2,5.8-0.2c1.3,0,2.4-0.4,4.3-0.4s3.2,0.2,6,0.4c1.5,0.1,3,0,4.5-0.2
	c0.9,0,2.2-0.2,3.4-0.2c1.2-0.1,2.4,0.2,3.4,0.6c1.1,0.6,0.7,7.4,0.2,8.7s0,4.8,0,5.2s0.9,1.5-2.2,1.7s-8,0.2-9.9,0.2
	c-1.9,0-7.1,0.2-9.5,0.2s-9.9-0.2-12.3-0.2s-2.2,1.3-2.2,2.2s-0.6,9.6-0.6,9.6c0.4,1.9,0.6,3.8,0.6,5.7c0,2.4-0.2,6.5-0.2,7.4
	s0.6,5.2,0.4,5.7c-0.2,0.4,0.2,8.7,0.2,9.1s0.7,3.3-0.4,3.9c-1.3,0.6-2.4,1.5-6.5,1.3C546.1,351.8,538.4,352,537.5,350.7
	L537.5,350.7z M753.3,332.2c0,0,0.2,1.7,0.2,2.8v7.8c-0.1,1.6-0.3,3.2-0.7,4.8c-0.2,0.4-4.3,2.4-6,3.3s-7.5,1.1-8.6,1.3
	s-3.2,0-8.6-0.2s-7.5,0-10.5-0.7s-5.4-2.2-8.2-3s-6.2-3.3-8.8-5.5s-6.2-6.5-7.3-7.6s-5.6-8.3-6.5-9.8c-0.9-1.3-3.7-10.9-3.7-12.4
	s-0.2-12.6,0-13.5s2.2-9.1,2.8-10.4s3.7-7.6,5-9.1s6.7-7.8,8.6-9.4s5.2-4.6,7.1-5.4c3.6-1.7,7.4-3.2,11.2-4.4
	c3.9-1.1,6-1.3,11.8-1.1s9.5,0,11.4,0.4c4.9,0.9,7.3,3,9.2,3.9s2.2,4.1,2.6,5.6c0.2,1.3,0,6.7,0,7.6c-0.2,1.3-0.6,2.5-1.1,3.7
	c-0.2,0.4-5.4-0.6-6.2-1.3c-1.5-0.9-12.5-2.4-16.1-2.2c-3,0.2-9.5,1.7-11.8,3.3c-2.6,1.8-6.5,5.9-8.8,8.9c-1.8,2.8-3.2,5.9-4.1,9.1
	c0,1.3-0.7,3.7-0.4,4.8s-0.7,7.4,0,8.7c0.4,1.3,1.7,5.4,2.8,6.5s1.7,5.4,5,7.2c3,1.7,5.2,3.3,8.4,3.9c3.2,0.9,6.9,2.8,11.2,3
	s6.7-0.9,9-0.9c2.3,0,4.5-0.3,6.7-0.9c1-0.3,2-0.5,3-0.6C751.8,330.7,753.3,330,753.3,332.2L753.3,332.2z M767.9,277.4
	c-0.8-1-1.3-2.2-1.3-3.5c-0.4-2.9-0.5-5.8-0.4-8.7c0.2-2.2,0.2-4.4,1.3-4.8s13.1-1.1,15.7-0.6c2.8,0.6,5.6,0.8,8.4,0.6
	c4.5-0.2,4.5-0.9,9.7-0.4s6,0.2,9.7,0.4s8,0,8,0h12.7c1.3,0,1.3,3.5,1.7,5.2c0.5,1.8,0.6,3.6,0.4,5.4c-0.2,2,0.4,4.4-0.6,5.2
	c-1.5,1.3-5.2,1.1-7.3,1.1s-5.2,0.2-8.8,0.2s-4.7-0.4-5.6,0s-1.5,0.7-1.3,2.2c0.1,3.8,0.1,7.5-0.2,11.3c-0.2,1.3,0.9,12.4,0.9,14.1
	c0,2.4-0.2,4.8-0.4,7.2c-0.2,0.9,0.2,5,0,6.5c0,2,0.7,6.5,0.4,8.7c0,1.3-0.2,8.7-0.2,9.4s0.2,8.5,0.2,9.4s-0.2,3.7-0.9,4.6
	s-1.5,0.6-3.9,0.9s-7.5,0-9.2,0s-4.7-0.2-6.2-0.2s-1.5-2-1.9-5.6s0.9-11.8,0.9-13.3s-1.1-9.4-0.9-10.9c0.4-3.1,0.7-6.2,0.7-9.4
	c-0.2-1.7-0.9-6.3-0.9-7.6s0.6-8.9,0.4-9.8c-0.3-1.7-0.4-3.3-0.4-5c0-1.5-0.4-4.8-0.4-6.5s0.2-5.4,0.2-5.4s-0.9-1.3-3.4-1.1
	s-3.2-0.4-6.2,0.2C775,277.7,771.5,277.8,767.9,277.4L767.9,277.4z M317.9,441.6c0,0,0,0.7-1.9,0.7c-1.4,0.1-2.7,0.1-4.1,0
	c-1.7-0.2-2.8-0.2-3-0.4c-0.2-0.2-0.6,0-0.6-1.5v-8.7c0-1.3,0-7.4,0.2-9.1s0-5.9,0-7.4c-0.2-2-0.3-3.9-0.2-5.9
	c0-1.7,0.4-8.5,0.4-10.2s0.2-7.2,0-8c-0.1-1.6-0.1-3.2,0-4.8c-0.1-1.4-0.1-2.8,0-4.1c0.2-1.5,0.6-3.5,0.6-4.1s2.1-0.9,3.4-1.1
	c2.1-0.2,4.2-0.3,6.2-0.2c2.6,0,15.1-0.2,16.1-0.2s9.9,0.9,10.5,0.6s1.3,0.9,1.7,2.2c0.3,1.4,0.3,2.9,0.2,4.4
	c-0.2,0.7-0.4,1.4-0.9,2c0,0-4.3,0.4-6.2,0.4s-12.3-0.4-13.6-0.4c-1.3,0-7.3-0.2-7.5,0c-0.3,0.2-0.5,0.5-0.6,0.9
	c-0.2,0.4,0,5.2-0.2,5.7c-0.2,0.4,0.2,7,0.2,7.2s0.2,0.7,1.5,0.4c1.3-0.2,8.2,0.4,10.5,0.2c3.3-0.2,6.6-0.2,9.9,0
	c1.9,0.2,4.1,0.2,4.3,0.6c0.3,1.6,0.4,3.2,0.4,4.8c0,0.7-0.4,3-0.4,3s0,0.9-1.7,0.9s-18.3,0.4-19.6,0.4c-1.4-0.1-2.7,0-4.1,0.2
	c-0.4,0.2-0.4,3.9-0.6,5c-0.2,1.1,0.4,5.2,0.2,6.8c-0.2,1.5,0,9.1,0,9.6S318.6,440.8,317.9,441.6z M429.6,406.6
	c-0.5-3.6-1.7-7.1-3.4-10.2c-1.3-2.2-3.2-7.4-8.6-12s-1.3-1.3-3.2-2.2c-2.1-1.1-3.2-1.7-4.3-2.2c-2.5-1.1-5.1-1.8-7.7-2.2
	c-5-0.7-10.1-0.1-14.9,1.7c-5.6,2.2-12.7,7.2-17.6,13c-5.2,6.1-5.8,17.8-5.8,17.8c0,3.1,2.4,10.4,3,11.7s1.9,5.2,2.8,6.3
	c0.9,1.3,2.4,2.8,3.7,4.6s4.7,3.9,6.5,5.2c1.3,0.9,2.8,1.7,4.3,2.2l3.2,1.1c0,0,2.1,0.2,3.4,0.4c1.5,0,4.5,0.9,6,0.9
	s4.3-0.2,8.8-0.7c4.3-0.4,5.6-2,5.8-2.2s2.6-1.3,2.6-1.3s1.9-0.9,2.6-1.1c0.9-0.2,7.1-7,8.2-8.3s4.1-9.6,4.3-10.2
	C429.1,418.1,429.8,409.6,429.6,406.6L429.6,406.6z M416.9,420.8c-1.6,2.8-3.7,5.4-6.2,7.4c-1.3,1.1-2.8,2-4.3,2.8
	c-2.2,0.6-4.6,1-6.9,1.1c-1.7,0-8.4,0.2-11.8-1.5s-6.2-3.5-8.2-6.3s-4.3-10.2-4.3-10.7c-0.6-8.3,1.5-11.1,2.6-13.7
	c1.3-2.6,1.9-4.4,4.1-6.1s4.5-4.1,6.2-5c1.9-0.9,3.9-1.6,6-2c3.9-0.4,4.7,0,5.8,0.2c1.5,0.2,4.3,1.3,6,1.7s3,2,4.3,3
	c2.8,1.7,4.3,5,5.6,6.3c1.9,2.2,3.2,9.6,3.4,12.6C419.7,413.6,418.6,417.3,416.9,420.8L416.9,420.8z M512,395.5
	c-0.9-2.4-6.2-8.7-7.8-10.2c-2.6-2.4-5.6-4.2-8.8-5.4c-2.4-0.6-5.8-2.2-7.7-2.2s-6.2-0.4-9.7-0.2s-11.8,4.6-13.1,5.6
	s-6.2,5.2-8.8,8.7c-2.6,3.3-5.6,12.2-5.6,12.2c-2.8,6.7,1.3,18.3,2.8,22s9,10.9,11.6,12.6s9.2,2.8,14.4,3.7
	c5.2,0.7,14.6-0.9,19.6-3.3c5.2-2.6,6.5-5.2,8.2-6.3c1.5-1.1,2.6-3.5,3.2-4.8s3.9-9.3,4.3-10.7c0.4-1.7,0.7-3.3,0.9-5v-5.6
	C515.6,402.3,513.1,397.7,512,395.5L512,395.5z M505.3,413.6c-0.2,1.8-3.9,8.9-4.5,10.2c-0.9,1.3-7.8,7.4-11.8,7.8
	c-3.9,0.2-9.3-0.7-12.3-0.7s-6.5-2.4-10.1-5.4c-3.9-3-6.2-10.9-6-11.8c0-0.9-0.4-6.7,0.2-9.4c0,0,2.6-7.6,7.1-11.5
	s12.5-6.3,15.3-6.3c2.8,0.1,5.6,0.7,8.2,1.7c2.6,0.9,3.2,0.9,5.6,3.5s3.4,2.8,4.7,5.2c1.3,2.6,2.6,5.9,3.4,7.8
	S505.5,411.6,505.3,413.6L505.3,413.6z M584.1,405.6c0-1.7-2.1-9.4-5.8-14.8c-3.7-5.4-10.5-8-13.1-9.6c-4.6-2.1-9.6-3.5-14.6-4.1
	c-3.4-0.2-6.9-0.2-10.4,0c-2.4,0-2.1,2-2.4,3c-0.2,1,0.4,4.8,0.2,6.5c0,2,0,4.1-0.2,6.1c-0.2,2,0.4,5,0.4,7.4s0.2,5.9,0.2,8
	s-0.2,8-0.2,10.4c0,2.8,0.2,4.6,0.2,5.7v11.1c0,1.7-0.2,6.1,0.6,7c0.4,0.4,3.9,0,3.9,0h4.3c1.1,0,2.2,0,3.2-0.2
	c1.5-0.2,7.7-1.3,12.7-2.6c5.2-1.3,8.6-5,12.9-9.1c4.3-4.1,7.1-12.6,7.7-13.9C584.9,414.9,584.1,407.3,584.1,405.6L584.1,405.6z
	 M573.9,416c-0.9,3-5.2,9.1-6.5,10c-1.1,0.9-6.5,4.8-9.9,5.2c-2.5,0.5-5,0.6-7.5,0.2c-2.4-0.2-1.9-10.7-1.7-12.6c0.2-2,0-7,0-8.7
	v-7.2c0,0-0.4-4.8-0.4-7c0.1-2,0-4.1-0.2-6.1c-0.1-1.2,0-2.5,0.2-3.7c1.3-0.3,2.6-0.3,3.9,0c2.7,0.5,5.4,1.3,8,2.4
	c2.6,1.1,3,1.5,5.4,3.7s3.9,2.8,5,5c1.1,2,3.9,6.1,3.9,8.3C574.1,407.7,574.6,412.9,573.9,416z M649,394c0,0-1.1-6.5-2.4-8.7
	s-5-4.8-5.4-5.2c-1-0.8-2.1-1.4-3.2-2c-1.3-0.6-8-0.9-10.3-0.9c-3.2,0-6.3,0.6-9.2,1.7c-2.8,1.3-4.3,2.2-5.2,3
	c-1.5,1.3-3.9,6.1-3.9,7s-1.1,7,0,9.8s4.5,9.4,10.5,11.3s15.5,4.3,16.6,5s6,3,4.3,8.5s-5.6,8.7-10.3,8.3s-9.2-1.7-10.3-3
	c-1.3-1.5-2.2-3.3-2.8-5.2c-0.2-0.7-0.2-2.2-1.3-2.2s-7.5-0.4-8.2,0.7c-1.1,2,0.2,4.3,0.7,5.4c0.8,2.3,2,4.4,3.4,6.3
	c0.9,0.9,5.6,5.2,10.3,7s9.5,1.1,14.8,0c4.5-1.1,8.4-3.8,11-7.6c1.5-2.4,3.9-10,3.4-13.3c-0.6-3.8-2.1-7.3-4.5-10.3
	c-1.7-2.2-5-3-7.1-3.7s-8.2-2.4-11.2-3.5s-9.5-4.4-9.5-8c0-3,0-5.2,1.7-7c0.7-0.9,4.7-2.4,7.5-2.4c2.1,0,4.1,0.4,6,1.3
	c1.7,1,3.1,2.3,4.1,3.9c0.6,1.3,0.9,2.6,1.5,3.9s0.9,0.6,2.6,0.6S649.3,396.2,649,394L649,394z"/>
<path class="st1" d="M224.6,237.6c-0.4-2.6-2.4-4.1-4.7-5c-2.6-1.1-5.4-0.6-7.5-0.9c-3.7-0.4-7.3-2-11-2.6c-2.4-0.6-4.7-1.1-6.9-1.7
	s-4.5-1.1-6.7-1.5c-3.6-0.8-7.3-1.3-11-1.5c-3-0.1-6.1,0.2-9,0.9c-6.3,1-12.3,3.3-17.6,6.7c-1.9,1.1-3.9,2.2-5.8,3.5
	c-5.8,3.1-11.1,7.1-15.7,11.7c1.1-4.6,1.7-7.2,2.8-11.5c1.1-3.7,2.4-6.5,4.5-8.7c2.4-2.3,5.4-3.9,8.6-4.6c3.2-0.9,6.2-1.5,9.2-2.6
	c2.1-0.6,4.5-2.4,6.7-3.5c1.9-0.9,3.6-2.1,5.2-3.5c2.3-2.3,4-5.2,5-8.3c0.9-2.2,0.9-4.1,1.7-6.1c0.9-1.7,2.1-3.5,3.2-5.2
	s1.7-3.7,3.2-5.2c1.7-2,3.9-3.7,5.4-5.9c1.3-1.8,2.4-3.8,3-5.9c0.8-2.1,1-4.3,0.6-6.5c-0.4-2.7-1.8-5.2-3.9-7
	c-2.3-1.7-5.2-2.3-8-1.5c-3.4,0.7-6.2,3-9,5c-1.6,1.2-3.3,2.3-5,3.3c-1.5,0.9-3.9,1.7-5.2,2.8c-1.5,1.4-2.8,3-3.9,4.8
	c-0.9,1.3-1.5,3.9-2.1,5.4c-1.5,3-3.2,4.1-5,6.5c-1.1,1.3-2.4,2.8-3.7,4.1c-2.6,3-3.7,6.3-4.5,10.2c-0.8,3.3-1.9,6.5-3.2,9.7
	c-0.7,1.5-1.4,3-2.4,4.4c-1.5,2.4-3,5-4.3,7.4v-3.3c0-7-1.1-15.4,0.4-23c0.5-3,1.6-5.8,3-8.5c2.8-4.4,7.5-5.9,11-9.4
	c2.6-2.8,3.4-6.3,5.4-9.4c1.2-1.7,2.5-3.4,3.9-5c1.3-1.6,2.4-3.3,3.2-5.2c0.6-1.6,1.1-3.3,1.5-5c0.3-1.9,0.4-3.8,0.4-5.6
	c0-0.4-0.2-0.4-0.6-0.6c-4.2-0.5-8.5,0.1-12.5,1.7c-2.7,1.1-5,2.9-6.7,5.2c-1.5,2.1-2.7,4.3-3.6,6.7c-1.1,2.4-1.3,4.4-2.6,6.5
	c-0.6,1.1-2.4,2.8-3,3.9c-1.6,2.7-2.7,5.6-3.2,8.7c-1,3.5-1.6,7.1-1.9,10.7c-0.2,4.1-0.4,8.3-0.4,12.4v9.8
	c-0.2,12.9,0.2,25.8,1.3,38.7c-0.4,0.2-0.7,0.4-1.1,0.7c-0.7,0.5-1.3,1-1.7,1.7l-2.2,2.6c0,0,2.8,1.5,3.7,1.5c1.3,0.1,2.6,0.1,3.9,0
	h3.7c1.5-0.1,2.9-0.4,4.3-0.9c0.9-0.4,1.8-0.9,2.6-1.5l-2.4-1.7l-1.9-1.1c-0.6-0.2-1.2-0.5-1.7-0.9c-0.4,0-0.4-0.2-0.4-0.2
	c1.6-2.9,3.7-5.5,6.2-7.6c2.8-2.5,6.1-4.4,9.7-5.7c1.7-0.6,3.5-0.9,5.4-0.9c2.8,0,5.4,0,8.2-0.2c2.8-0.4,5.6-1.3,8.4-2
	c2.8-0.7,5.8-1.1,8.4,0.2c2.4,1.3,4.7,3.9,6.9,5.2c1.9,1.1,3.9,2,6,2.6c1.7,0.6,3.4,1,5.2,1.1c3.7,0.5,7.4,0.4,11-0.4
	c2.6-0.6,4.7-2,7.1-2.6c1.5-0.4,3.6,0,5.2-0.2C220.9,243.5,225.4,242.2,224.6,237.6z"/>
<rect x="78.3" y="118.2" class="st2" width="785.7" height="363.8"/>
</svg>
