<?xml version="1.0" encoding="UTF-8" standalone="no"?>
<svg
   xmlns:dc="http://purl.org/dc/elements/1.1/"
   xmlns:cc="http://creativecommons.org/ns#"
   xmlns:rdf="http://www.w3.org/1999/02/22-rdf-syntax-ns#"
   xmlns:svg="http://www.w3.org/2000/svg"
   xmlns="http://www.w3.org/2000/svg"
   xmlns:sodipodi="http://sodipodi.sourceforge.net/DTD/sodipodi-0.dtd"
   xmlns:inkscape="http://www.inkscape.org/namespaces/inkscape"
   version="1.1"
   id="svg2"
   xml:space="preserve"
   width="566.93335"
   height="566.93335"
   viewBox="0 0 566.93335 566.93335"
   sodipodi:docname="Creative organic food logo vector 03.eps"><metadata
     id="metadata8"><rdf:RDF><cc:Work
         rdf:about=""><dc:format>image/svg+xml</dc:format><dc:type
           rdf:resource="http://purl.org/dc/dcmitype/StillImage" /></cc:Work></rdf:RDF></metadata><defs
     id="defs6" /><sodipodi:namedview
     pagecolor="#ffffff"
     bordercolor="#666666"
     borderopacity="1"
     objecttolerance="10"
     gridtolerance="10"
     guidetolerance="10"
     inkscape:pageopacity="0"
     inkscape:pageshadow="2"
     inkscape:window-width="640"
     inkscape:window-height="480"
     id="namedview4" /><g
     id="g10"
     inkscape:groupmode="layer"
     inkscape:label="ink_ext_XXXXXX"
     transform="matrix(1.3333333,0,0,-1.3333333,0,566.93333)"><g
       id="g12"
       transform="scale(0.1)"><path
         d="M 0,0 H 4251.97 V 4251.96 H 0 Z"
         style="fill:#dbceba;fill-opacity:1;fill-rule:nonzero;stroke:none"
         id="path14" /><path
         d="m 2120.49,345.301 c -1112.8,0 -2015.256,47.769 -2015.256,106.687 0,58.891 902.456,106.653 2015.256,106.653 1113.2,0 2015.49,-47.762 2015.49,-106.653 0,-58.918 -902.29,-106.687 -2015.49,-106.687 m 0,209.008 C 1052.6,554.309 186.836,508.5 186.836,451.988 c 0,-56.539 865.764,-102.328 1933.654,-102.328 1068.24,0 1933.98,45.789 1933.98,102.328 0,56.512 -865.74,102.321 -1933.98,102.321"
         style="fill:#dacdb9;fill-opacity:1;fill-rule:nonzero;stroke:none"
         id="path16" /><path
         d="m 2120.49,349.66 c -1067.89,0 -1933.654,45.789 -1933.654,102.328 0,56.512 865.764,102.321 1933.654,102.321 1068.24,0 1933.98,-45.809 1933.98,-102.321 0,-56.539 -865.74,-102.328 -1933.98,-102.328 m 0,200.41 c -1023.03,0 -1852.267,-43.961 -1852.267,-98.082 0,-54.187 829.237,-98.117 1852.267,-98.117 1023.28,0 1852.75,43.93 1852.75,98.117 0,54.121 -829.47,98.082 -1852.75,98.082"
         style="fill:#d8ccb8;fill-opacity:1;fill-rule:nonzero;stroke:none"
         id="path18" /><path
         d="m 2120.49,353.871 c -1023.03,0 -1852.267,43.93 -1852.267,98.117 0,54.121 829.237,98.082 1852.267,98.082 1023.28,0 1852.75,-43.961 1852.75,-98.082 0,-54.187 -829.47,-98.117 -1852.75,-98.117 m 0,193.09 c -990.78,0 -1794.064,-42.531 -1794.064,-94.973 0,-52.476 803.284,-95.027 1794.064,-95.027 991.27,0 1794.55,42.551 1794.55,95.027 0,52.442 -803.28,94.973 -1794.55,94.973"
         style="fill:#d6cab6;fill-opacity:1;fill-rule:nonzero;stroke:none"
         id="path20" /><path
         d="m 2120.49,356.961 c -990.78,0 -1794.064,42.551 -1794.064,95.027 0,52.442 803.284,94.973 1794.064,94.973 991.27,0 1794.55,-42.531 1794.55,-94.973 0,-52.476 -803.28,-95.027 -1794.55,-95.027 m 0,185.398 c -942.87,0 -1707.033,-40.488 -1707.033,-90.371 0,-49.949 764.163,-90.328 1707.033,-90.328 943.22,0 1707.3,40.379 1707.3,90.328 0,49.883 -764.08,90.371 -1707.3,90.371"
         style="fill:#d4c8b4;fill-opacity:1;fill-rule:nonzero;stroke:none"
         id="path22" /><path
         d="m 2120.49,361.66 c -942.87,0 -1707.033,40.379 -1707.033,90.328 0,49.883 764.163,90.371 1707.033,90.371 943.22,0 1707.3,-40.488 1707.3,-90.371 0,-49.949 -764.08,-90.328 -1707.3,-90.328 m -21.91,2.981 c 7.31,0 14.57,0 21.91,0 911.13,0 1649.55,39.078 1649.55,87.347 0,48.203 -738.42,87.344 -1649.55,87.344 -910.78,0 -1649.24,-39.141 -1649.24,-87.344 0,-0.398 0.051,-0.789 0.148,-1.179 -0.097,-0.387 -0.148,-0.778 -0.148,-1.168 0,-46.922 718.91,-85 1605.7,-85 7.21,0 14.45,0 21.63,0"
         style="fill:#d2c5b2;fill-opacity:1;fill-rule:nonzero;stroke:none"
         id="path24" /><path
         d="m 2120.49,364.641 c -7.34,0 -14.6,0 -21.91,0 877.27,0.609 1584.39,38.461 1584.39,85 0,46.98 -718.79,84.988 -1606.02,84.988 -879.43,0 -1593.755,-37.379 -1605.552,-83.82 -0.097,0.39 -0.148,0.781 -0.148,1.179 0,48.203 738.46,87.344 1649.24,87.344 911.13,0 1649.55,-39.141 1649.55,-87.344 0,-48.269 -738.42,-87.347 -1649.55,-87.347"
         style="fill:#cfc3b0;fill-opacity:1;fill-rule:nonzero;stroke:none"
         id="path26" /><path
         d="m 2076.95,364.641 c -886.79,0 -1605.7,38.078 -1605.7,85 0,0.39 0.051,0.781 0.148,1.168 11.844,-47.34 733.952,-85.547 1627.182,-86.168 -7.18,0 -14.42,0 -21.63,0"
         style="fill:#cfc3b0;fill-opacity:1;fill-rule:nonzero;stroke:none"
         id="path28" /><path
         d="m 2098.58,364.641 c -893.23,0.621 -1615.338,38.828 -1627.182,86.168 11.797,46.441 726.122,83.82 1605.552,83.82 887.23,0 1606.02,-38.008 1606.02,-84.988 0,-46.539 -707.12,-84.391 -1584.39,-85 m -21.63,163.898 c -822.67,0 -1489.723,-35.258 -1489.723,-78.898 0,-43.551 667.053,-78.852 1489.723,-78.852 823.05,0 1489.85,35.301 1489.85,78.852 0,43.64 -666.8,78.898 -1489.85,78.898"
         style="fill:#cdc1ae;fill-opacity:1;fill-rule:nonzero;stroke:none"
         id="path30" /><path
         d="m 2076.95,370.789 c -822.67,0 -1489.723,35.301 -1489.723,78.852 0,43.64 667.053,78.898 1489.723,78.898 823.05,0 1489.85,-35.258 1489.85,-78.898 0,-43.551 -666.8,-78.852 -1489.85,-78.852 m 0,153.191 c -774.65,0 -1402.614,-33.269 -1402.614,-74.339 0,-41.032 627.964,-74.211 1402.614,-74.211 774.85,0 1403.05,33.179 1403.05,74.211 0,41.07 -628.2,74.339 -1403.05,74.339"
         style="fill:#cbbfac;fill-opacity:1;fill-rule:nonzero;stroke:none"
         id="path32" /><path
         d="m 2076.95,375.43 c -774.65,0 -1402.614,33.179 -1402.614,74.211 0,41.07 627.964,74.339 1402.614,74.339 774.85,0 1403.05,-33.269 1403.05,-74.339 0,-41.032 -628.2,-74.211 -1403.05,-74.211 m 0,145.422 C 1334.45,520.852 732.5,489 732.5,449.641 c 0,-39.301 601.95,-71.172 1344.45,-71.172 742.78,0 1344.83,31.871 1344.83,71.172 0,39.359 -602.05,71.211 -1344.83,71.211"
         style="fill:#c9bdaa;fill-opacity:1;fill-rule:nonzero;stroke:none"
         id="path34" /><path
         d="m 2076.95,378.469 c -742.5,0 -1344.45,31.871 -1344.45,71.172 0,39.359 601.95,71.211 1344.45,71.211 742.78,0 1344.83,-31.852 1344.83,-71.211 0,-39.301 -602.05,-71.172 -1344.83,-71.172 m 0,139.332 c -710.25,0 -1286.169,-30.492 -1286.169,-68.16 0,-37.602 575.919,-68.11 1286.169,-68.11 710.75,0 1286.55,30.508 1286.55,68.11 0,37.668 -575.8,68.16 -1286.55,68.16"
         style="fill:#c7bba9;fill-opacity:1;fill-rule:nonzero;stroke:none"
         id="path36" /><path
         d="m 2076.95,381.531 c -710.25,0 -1286.169,30.508 -1286.169,68.11 0,37.668 575.919,68.16 1286.169,68.16 710.75,0 1286.55,-30.492 1286.55,-68.16 0,-37.602 -575.8,-68.11 -1286.55,-68.11 m -698.01,121.36 c -317.45,-11.7 -525.288,-31.172 -525.288,-53.25 0,-35.782 547.778,-64.68 1223.298,-64.68 415.01,0 781.81,10.898 1003.11,27.59 159.97,10.898 255.25,24.59 255.25,39.437 0,35.492 -543.88,64.262 -1214.82,64.262 -279.21,0 -536.4,-4.988 -741.55,-13.359"
         style="fill:#c6baa7;fill-opacity:1;fill-rule:nonzero;stroke:none"
         id="path38" /><path
         d="m 2076.95,384.961 c -675.52,0 -1223.298,28.898 -1223.298,64.68 0,22.078 207.838,41.55 525.288,53.25 -287.76,-11.75 -473.1,-30.18 -473.1,-50.903 0,-35.488 543.79,-64.328 1214.65,-64.328 390.14,0 737.3,9.75 959.57,24.891 -221.3,-16.692 -588.1,-27.59 -1003.11,-27.59"
         style="fill:#c4b9a6;fill-opacity:1;fill-rule:nonzero;stroke:none"
         id="path40" /><path
         d="m 3080.06,412.551 c 139.12,10.5 220.72,23.277 220.72,37.09 0,2.148 -1.98,4.281 -5.84,6.379 -37.24,30.91 -500.36,55.652 -1082.13,58.039 -44.6,0.261 -89.94,0.39 -135.86,0.39 -259.46,0 -500.04,-4.269 -698.01,-11.558 205.15,8.371 462.34,13.359 741.55,13.359 670.94,0 1214.82,-28.77 1214.82,-64.262 0,-14.847 -95.28,-28.539 -255.25,-39.437"
         style="fill:#c4b9a6;fill-opacity:1;fill-rule:nonzero;stroke:none"
         id="path42" /><path
         d="m 2120.49,387.66 c -670.86,0 -1214.65,28.84 -1214.65,64.328 0,20.723 185.34,39.153 473.1,50.903 197.97,7.289 438.55,11.558 698.01,11.558 45.92,0 91.26,-0.129 135.86,-0.39 -30.46,0.121 -61.26,0.191 -92.32,0.191 -649.47,0 -1176.388,-27.852 -1176.388,-62.262 0,-34.406 526.918,-62.316 1176.388,-62.316 649.96,0 1176.87,27.91 1176.87,62.316 0,1.352 -0.81,2.703 -2.42,4.032 3.86,-2.098 5.84,-4.231 5.84,-6.379 0,-13.813 -81.6,-26.59 -220.72,-37.09 C 2857.79,397.41 2510.63,387.66 2120.49,387.66"
         style="fill:#c3b7a5;fill-opacity:1;fill-rule:nonzero;stroke:none"
         id="path44" /><path
         d="m 3294.94,456.02 c -56.07,30.468 -509.59,54.691 -1082.13,58.039 581.77,-2.387 1044.89,-27.129 1082.13,-58.039"
         style="fill:#c3b7a5;fill-opacity:1;fill-rule:nonzero;stroke:none"
         id="path46" /><path
         d="m 2120.49,389.672 c -649.47,0 -1176.388,27.91 -1176.388,62.316 0,34.41 526.918,62.262 1176.388,62.262 31.06,0 61.86,-0.07 92.32,-0.191 572.54,-3.348 1026.06,-27.571 1082.13,-58.039 1.61,-1.329 2.42,-2.68 2.42,-4.032 0,-34.406 -526.91,-62.316 -1176.87,-62.316 m -947.61,93.848 c -127.82,-9.571 -202.919,-21.258 -202.919,-33.879 0,-32.371 495.679,-58.571 1106.989,-58.571 235.62,0 454.08,3.891 633.6,10.52 318.02,10.449 529.66,29.101 529.66,50.398 0,32.723 -501.15,59.203 -1119.72,59.203 -399.18,0 -749.48,-11.043 -947.61,-27.671"
         style="fill:#c1b6a4;fill-opacity:1;fill-rule:nonzero;stroke:none"
         id="path48" /><path
         d="m 2076.95,391.07 c -611.31,0 -1106.989,26.2 -1106.989,58.571 0,12.621 75.099,24.308 202.919,33.879 -108.75,-9.122 -171.65,-19.93 -171.65,-31.532 0,-32.769 500.98,-59.277 1119.26,-59.277 216.56,0 418.75,3.25 590.06,8.879 -179.52,-6.629 -397.98,-10.52 -633.6,-10.52"
         style="fill:#c0b4a2;fill-opacity:1;fill-rule:nonzero;stroke:none"
         id="path50" /><path
         d="m 2710.55,401.59 c 191.42,7.07 338.57,17.262 415.2,29.172 49.39,6.558 76.54,13.718 76.54,21.226 0,31.633 -484.3,57.231 -1081.8,57.231 -135.84,0 -265.87,-1.328 -385.66,-3.75 -229.16,-3.938 -425.56,-11.739 -561.95,-21.949 198.13,16.628 548.43,27.671 947.61,27.671 618.57,0 1119.72,-26.48 1119.72,-59.203 0,-21.297 -211.64,-39.949 -529.66,-50.398"
         style="fill:#c0b4a2;fill-opacity:1;fill-rule:nonzero;stroke:none"
         id="path52" /><path
         d="m 2120.49,392.711 c -618.28,0 -1119.26,26.508 -1119.26,59.277 0,11.602 62.9,22.41 171.65,31.532 136.39,10.21 332.79,18.011 561.95,21.949 -406.82,-8.207 -695.85,-29.047 -695.85,-53.481 0,-0.258 0.04,-0.519 0.1,-0.789 -0.06,-0.258 -0.1,-0.508 -0.1,-0.769 0,-30.77 471.63,-55.7 1053.15,-55.7 4.68,0 9.41,0.012 14.08,0.012 4.76,0 9.5,-0.012 14.28,-0.012 456,0 846.08,14.891 1005.26,36.032 -76.63,-11.91 -223.78,-22.102 -415.2,-29.172 -171.31,-5.629 -373.5,-8.879 -590.06,-8.879"
         style="fill:#beb3a1;fill-opacity:1;fill-rule:nonzero;stroke:none"
         id="path54" /><path
         d="m 3125.75,430.762 c 38.08,5.918 58.72,12.269 58.72,18.879 0,32.437 -495.84,58.687 -1107.52,58.687 -119.39,0 -234.38,-1 -342.12,-2.859 119.79,2.422 249.82,3.75 385.66,3.75 597.5,0 1081.8,-25.598 1081.8,-57.231 0,-7.508 -27.15,-14.668 -76.54,-21.226"
         style="fill:#beb3a1;fill-opacity:1;fill-rule:nonzero;stroke:none"
         id="path56" /><path
         d="m 2120.49,394.73 c -4.78,0 -9.52,0.012 -14.28,0.012 575.01,0.399 1038.85,25.168 1038.85,55.688 0,30.89 -471.45,55.832 -1052.93,55.832 -576.63,0 -1045.19,-24.532 -1053.05,-55.063 -0.06,0.27 -0.1,0.531 -0.1,0.789 0,24.434 289.03,45.274 695.85,53.481 107.74,1.859 222.73,2.859 342.12,2.859 611.68,0 1107.52,-26.25 1107.52,-58.687 0,-6.61 -20.64,-12.961 -58.72,-18.879 C 2966.57,409.621 2576.49,394.73 2120.49,394.73"
         style="fill:#bdb1a0;fill-opacity:1;fill-rule:nonzero;stroke:none"
         id="path58" /><path
         d="m 2092.13,394.73 c -581.52,0 -1053.15,24.93 -1053.15,55.7 0,0.261 0.04,0.511 0.1,0.769 7.89,-31.078 481.49,-56.058 1067.13,-56.457 -4.67,0 -9.4,-0.012 -14.08,-0.012"
         style="fill:#bdb1a0;fill-opacity:1;fill-rule:nonzero;stroke:none"
         id="path60" /><path
         d="m 2106.21,394.742 c -585.64,0.399 -1059.24,25.379 -1067.13,56.457 7.86,30.531 476.42,55.063 1053.05,55.063 581.48,0 1052.93,-24.942 1052.93,-55.832 0,-30.52 -463.84,-55.289 -1038.85,-55.688 m -14.08,107.379 c -539.51,0 -976.97,-23.101 -976.97,-51.691 0,-28.539 437.46,-51.668 976.97,-51.668 539.59,0 976.95,23.129 976.95,51.668 0,28.59 -437.36,51.691 -976.95,51.691"
         style="fill:#bbb09e;fill-opacity:1;fill-rule:nonzero;stroke:none"
         id="path62" /><path
         d="m 2092.13,398.762 c -539.51,0 -976.97,23.129 -976.97,51.668 0,28.59 437.46,51.691 976.97,51.691 539.59,0 976.95,-23.101 976.95,-51.691 0,-28.539 -437.36,-51.668 -976.95,-51.668 m 0,100.429 c -508.01,0 -919.92,-21.812 -919.92,-48.761 0,-26.871 411.91,-48.649 919.92,-48.649 507.95,0 919.9,21.778 919.9,48.649 0,26.949 -411.95,48.761 -919.9,48.761"
         style="fill:#baaf9d;fill-opacity:1;fill-rule:nonzero;stroke:none"
         id="path64" /><path
         d="m 2092.13,401.781 c -508.01,0 -919.92,21.778 -919.92,48.649 0,26.949 411.91,48.761 919.92,48.761 507.95,0 919.9,-21.812 919.9,-48.761 0,-26.871 -411.95,-48.649 -919.9,-48.649 m 0,95.328 c -486.93,0 -881.78,-20.871 -881.78,-46.679 0,-25.719 394.85,-46.61 881.78,-46.61 486.91,0 881.7,20.891 881.7,46.61 0,25.808 -394.79,46.679 -881.7,46.679"
         style="fill:#b8ad9c;fill-opacity:1;fill-rule:nonzero;stroke:none"
         id="path66" /><path
         d="m 2092.13,403.82 c -486.93,0 -881.78,20.891 -881.78,46.61 0,25.808 394.85,46.679 881.78,46.679 486.91,0 881.7,-20.871 881.7,-46.679 0,-25.719 -394.79,-46.61 -881.7,-46.61 m -225.78,89.672 c -356.25,-5.23 -617.76,-22.531 -617.76,-43.062 0,-24.641 377.66,-44.7 843.54,-44.7 388.49,0 715.65,13.942 813.63,32.86 25.68,4.219 39.55,8.73 39.55,13.398 0,24.133 -369.04,43.602 -824.82,43.602 -88.67,0 -174.09,-0.738 -254.14,-2.098"
         style="fill:#b7ac9b;fill-opacity:1;fill-rule:nonzero;stroke:none"
         id="path68" /><path
         d="m 2092.13,405.73 c -465.88,0 -843.54,20.059 -843.54,44.7 0,20.531 261.51,37.832 617.76,43.062 -286.93,-4.914 -505.02,-17.89 -557.97,-33.922 -12.16,-2.949 -18.58,-6.011 -18.58,-9.14 0,-23.489 359.09,-42.399 802.33,-42.399 61.73,0 121.81,0.367 179.55,1.071 299.63,2.929 542.31,14.41 634.08,29.488 -97.98,-18.918 -425.14,-32.86 -813.63,-32.86"
         style="fill:#b5aa99;fill-opacity:1;fill-rule:nonzero;stroke:none"
         id="path70" /><path
         d="m 2092.13,408.031 c -443.24,0 -802.33,18.91 -802.33,42.399 0,3.129 6.42,6.191 18.58,9.14 -8.12,-2.461 -12.36,-5 -12.36,-7.582 0,-24.109 369.19,-43.617 824.47,-43.617 51.66,0 102.17,0.25 151.19,0.731 -57.74,-0.704 -117.82,-1.071 -179.55,-1.071"
         style="fill:#b4a998;fill-opacity:1;fill-rule:nonzero;stroke:none"
         id="path72" /><path
         d="m 2905.76,438.59 c 19.53,3.769 29.96,7.742 29.96,11.84 0,24.679 -377.69,44.672 -843.59,44.672 -78.2,0 -153.93,-0.563 -225.78,-1.61 80.05,1.36 165.47,2.098 254.14,2.098 455.78,0 824.82,-19.469 824.82,-43.602 0,-4.668 -13.87,-9.179 -39.55,-13.398"
         style="fill:#b5aa99;fill-opacity:1;fill-rule:nonzero;stroke:none"
         id="path74" /><path
         d="m 2271.68,409.102 c 179.8,2.16 336.65,7.507 447.92,14.878 124.33,7.461 199.74,17.258 199.74,28.008 0,23.383 -357.41,42.321 -798.85,42.321 -207.78,0 -396.98,-4.2 -539,-11.09 -135.83,-5.938 -234.08,-14.207 -273.11,-23.649 52.95,16.032 271.04,29.008 557.97,33.922 71.85,1.047 147.58,1.61 225.78,1.61 465.9,0 843.59,-19.993 843.59,-44.672 0,-4.098 -10.43,-8.071 -29.96,-11.84 -91.77,-15.078 -334.45,-26.559 -634.08,-29.488"
         style="fill:#b4a998;fill-opacity:1;fill-rule:nonzero;stroke:none"
         id="path76" /><path
         d="m 2120.49,408.371 c -455.28,0 -824.47,19.508 -824.47,43.617 0,2.582 4.24,5.121 12.36,7.582 39.03,9.442 137.28,17.711 273.11,23.649 -159.43,-7.739 -259.4,-18.867 -259.4,-31.231 0,-23.398 357.38,-42.328 798.4,-42.328 238.67,0 452.78,5.539 599.11,14.32 -111.27,-7.371 -268.12,-12.718 -447.92,-14.878 -49.02,-0.481 -99.53,-0.731 -151.19,-0.731"
         style="fill:#b2a797;fill-opacity:1;fill-rule:nonzero;stroke:none"
         id="path78" /><path
         d="m 2719.6,423.98 c 109.42,7.239 174.81,16.43 174.81,26.45 0,23.48 -359.23,42.5 -802.28,42.5 -194.03,0 -371.93,-3.649 -510.64,-9.711 142.02,6.89 331.22,11.09 539,11.09 441.44,0 798.85,-18.938 798.85,-42.321 0,-10.75 -75.41,-20.547 -199.74,-28.008"
         style="fill:#b2a797;fill-opacity:1;fill-rule:nonzero;stroke:none"
         id="path80" /><path
         d="m 2120.49,409.66 c -441.02,0 -798.4,18.93 -798.4,42.328 0,12.364 99.97,23.492 259.4,31.231 138.71,6.062 316.61,9.711 510.64,9.711 443.05,0 802.28,-19.02 802.28,-42.5 0,-10.02 -65.39,-19.211 -174.81,-26.45 -146.33,-8.781 -360.44,-14.32 -599.11,-14.32 m -172.31,3.129 c 55.35,-0.68 113.05,-1.039 172.31,-1.039 419.86,0 760.12,18.012 760.12,40.238 0,22.203 -340.26,40.254 -760.12,40.254 -419.77,0 -759.87,-18.051 -759.87,-40.254 0,-3.078 6.52,-6.066 18.85,-8.949 56.07,-15.199 281.83,-27.187 568.71,-30.25"
         style="fill:#b1a695;fill-opacity:1;fill-rule:nonzero;stroke:none"
         id="path82" /><path
         d="m 1948.18,412.789 c -286.88,3.063 -512.64,15.051 -568.71,30.25 64.22,-14.98 286.23,-26.777 568.71,-30.25"
         style="fill:#b0a595;fill-opacity:1;fill-rule:nonzero;stroke:none"
         id="path84" /><path
         d="m 2120.49,411.75 c -59.26,0 -116.96,0.359 -172.31,1.039 46.53,-0.488 94.66,-0.75 143.95,-0.75 150.95,0 291.15,2.441 407.3,6.609 213.07,6.821 355.47,19.223 355.47,33.34 0,21.481 -328.63,38.864 -734.41,38.864 -264.77,0 -496.76,-7.411 -625.87,-18.543 -81.07,-6.2 -128.59,-13.739 -128.59,-21.879 0,-2.532 4.63,-5 13.44,-7.391 -12.33,2.883 -18.85,5.871 -18.85,8.949 0,22.203 340.1,40.254 759.87,40.254 419.86,0 760.12,-18.051 760.12,-40.254 0,-22.226 -340.26,-40.238 -760.12,-40.238"
         style="fill:#b0a595;fill-opacity:1;fill-rule:nonzero;stroke:none"
         id="path86" /><path
         d="m 2092.13,412.039 c -49.29,0 -97.42,0.262 -143.95,0.75 -282.48,3.473 -504.49,15.27 -568.71,30.25 -8.81,2.391 -13.44,4.859 -13.44,7.391 0,8.14 47.52,15.679 128.59,21.879 -68.58,-5.911 -108.12,-12.868 -108.12,-20.321 0,-0.168 0.02,-0.34 0.07,-0.508 -0.05,-0.171 -0.07,-0.339 -0.07,-0.511 0,-20.899 320,-37.91 714.71,-37.91 3.2,0 6.38,0 9.58,0.011 3.23,-0.011 6.46,-0.011 9.7,-0.011 138.67,0 268.33,2.043 378.94,5.589 -116.15,-4.168 -256.35,-6.609 -407.3,-6.609"
         style="fill:#afa594;fill-opacity:1;fill-rule:nonzero;stroke:none"
         id="path88" /><path
         d="m 2499.43,418.648 c 192.37,6.903 318.75,18.563 318.75,31.782 0,3.129 -7.02,6.172 -20.26,9.082 -66.31,15.187 -305.78,26.918 -602.45,29 -33.77,0.25 -68.25,0.379 -103.34,0.379 -247.7,0 -466.46,-6.551 -597.51,-16.582 129.11,11.132 361.1,18.543 625.87,18.543 405.78,0 734.41,-17.383 734.41,-38.864 0,-14.117 -142.4,-26.519 -355.47,-33.34"
         style="fill:#afa594;fill-opacity:1;fill-rule:nonzero;stroke:none"
         id="path90" /><path
         d="m 2120.49,413.059 c -3.24,0 -6.47,0 -9.7,0.011 390.32,0.27 705.42,17.168 705.42,37.899 0,2.941 -6.32,5.793 -18.29,8.543 13.24,-2.91 20.26,-5.953 20.26,-9.082 0,-13.219 -126.38,-24.879 -318.75,-31.782 -110.61,-3.546 -240.27,-5.589 -378.94,-5.589 m -733.92,38.421 c -0.05,0.168 -0.07,0.34 -0.07,0.508 0,7.453 39.54,14.41 108.12,20.321 131.05,10.031 349.81,16.582 597.51,16.582 35.09,0 69.57,-0.129 103.34,-0.379 -30.84,0.207 -62.31,0.32 -94.26,0.32 -391.53,0 -709.55,-16.711 -714.64,-37.352"
         style="fill:#afa494;fill-opacity:1;fill-rule:nonzero;stroke:none"
         id="path92" /><path
         d="m 2101.21,413.059 c -394.71,0 -714.71,17.011 -714.71,37.91 0,0.172 0.02,0.34 0.07,0.511 5.11,-21.05 326.49,-38.14 724.22,-38.41 -3.2,-0.011 -6.38,-0.011 -9.58,-0.011"
         style="fill:#afa494;fill-opacity:1;fill-rule:nonzero;stroke:none"
         id="path94" /><path
         d="m 2797.92,459.512 c -69.01,15.16 -307.12,26.769 -602.45,29 296.67,-2.082 536.14,-13.813 602.45,-29"
         style="fill:#afa494;fill-opacity:1;fill-rule:nonzero;stroke:none"
         id="path96" /><path
         d="m 2110.79,413.07 c -397.73,0.27 -719.11,17.36 -724.22,38.41 5.09,20.641 323.11,37.352 714.64,37.352 31.95,0 63.42,-0.113 94.26,-0.32 295.33,-2.231 533.44,-13.84 602.45,-29 11.97,-2.75 18.29,-5.602 18.29,-8.543 0,-20.731 -315.1,-37.629 -705.42,-37.899 m -9.58,72.961 c -366.17,0 -663.1,-15.691 -663.1,-35.062 0,-19.43 296.93,-35.117 663.1,-35.117 366.37,0 663.28,15.687 663.28,35.117 0,19.371 -296.91,35.062 -663.28,35.062"
         style="fill:#aea393;fill-opacity:1;fill-rule:nonzero;stroke:none"
         id="path98" /><path
         d="m 2101.21,415.852 c -366.17,0 -663.1,15.687 -663.1,35.117 0,19.371 296.93,35.062 663.1,35.062 366.37,0 663.28,-15.691 663.28,-35.062 0,-19.43 -296.91,-35.117 -663.28,-35.117 m 0,68.136 c -344.75,0 -624.41,-14.726 -624.41,-33.019 0,-18.309 279.66,-33.09 624.41,-33.09 345.04,0 624.61,14.781 624.61,33.09 0,18.293 -279.57,33.019 -624.61,33.019"
         style="fill:#ada292;fill-opacity:1;fill-rule:nonzero;stroke:none"
         id="path100" /><path
         d="m 2101.21,417.879 c -344.75,0 -624.41,14.781 -624.41,33.09 0,18.293 279.66,33.019 624.41,33.019 345.04,0 624.61,-14.726 624.61,-33.019 0,-18.309 -279.57,-33.09 -624.61,-33.09 m 0,64.73 c -330.53,0 -598.46,-14.16 -598.46,-31.64 0,-17.571 267.93,-31.629 598.46,-31.629 330.65,0 598.69,14.058 598.69,31.629 0,17.48 -268.04,31.64 -598.69,31.64"
         style="fill:#aca292;fill-opacity:1;fill-rule:nonzero;stroke:none"
         id="path102" /><path
         d="m 2101.21,419.34 c -330.53,0 -598.46,14.058 -598.46,31.629 0,17.48 267.93,31.64 598.46,31.64 330.65,0 598.69,-14.16 598.69,-31.64 0,-17.571 -268.04,-31.629 -598.69,-31.629 m 0,61.98 c -316.17,0 -572.71,-13.601 -572.71,-30.351 0,-16.719 256.54,-30.41 572.71,-30.41 316.25,0 572.72,13.691 572.72,30.41 0,16.75 -256.47,30.351 -572.72,30.351"
         style="fill:#aca191;fill-opacity:1;fill-rule:nonzero;stroke:none"
         id="path104" /><path
         d="m 2101.21,420.559 c -316.17,0 -572.71,13.691 -572.71,30.41 0,16.75 256.54,30.351 572.71,30.351 316.25,0 572.72,-13.601 572.72,-30.351 0,-16.719 -256.47,-30.41 -572.72,-30.41 m -306.45,54.242 c -143.81,-5.192 -238.26,-13.922 -238.26,-23.832 0,-15.981 244.03,-28.848 544.71,-28.848 182.22,0 343.56,4.719 442.42,12 73.72,4.891 117.8,11.098 117.8,17.867 0,15.813 -242.11,28.571 -540.94,28.571 -122.3,0 -235.15,-2.137 -325.73,-5.758"
         style="fill:#aba090;fill-opacity:1;fill-rule:nonzero;stroke:none"
         id="path106" /><path
         d="m 2101.21,422.121 c -300.68,0 -544.71,12.867 -544.71,28.848 0,9.91 94.45,18.64 238.26,23.832 -130.43,-5.211 -214.72,-13.481 -214.72,-22.813 0,-15.867 242.05,-28.636 540.45,-28.636 171.35,0 324.04,4.199 423.14,10.769 -98.86,-7.281 -260.2,-12 -442.42,-12"
         style="fill:#aaa090;fill-opacity:1;fill-rule:nonzero;stroke:none"
         id="path108" /><path
         d="m 2543.63,434.121 c 64.31,4.738 102.19,10.551 102.19,16.848 0,0.89 -0.76,1.769 -2.24,2.633 -14.81,13.699 -216.84,24.679 -472.79,25.957 -22.78,0.152 -46.01,0.23 -69.58,0.23 -113.6,0 -219.13,-1.84 -306.45,-4.988 90.58,3.621 203.43,5.758 325.73,5.758 298.83,0 540.94,-12.758 540.94,-28.571 0,-6.769 -44.08,-12.976 -117.8,-17.867"
         style="fill:#aaa090;fill-opacity:1;fill-rule:nonzero;stroke:none"
         id="path110" /><path
         d="m 2120.49,423.352 c -298.4,0 -540.45,12.769 -540.45,28.636 0,9.332 84.29,17.602 214.72,22.813 87.32,3.148 192.85,4.988 306.45,4.988 23.57,0 46.8,-0.078 69.58,-0.23 -16.55,0.082 -33.33,0.121 -50.3,0.121 -289.08,0 -523.6,-12.36 -523.6,-27.692 0,-15.328 234.52,-27.707 523.6,-27.707 289.57,0 523.96,12.379 523.96,27.707 0,0.543 -0.29,1.082 -0.87,1.614 1.48,-0.864 2.24,-1.743 2.24,-2.633 0,-6.297 -37.88,-12.11 -102.19,-16.848 -99.1,-6.57 -251.79,-10.769 -423.14,-10.769"
         style="fill:#aa9f8f;fill-opacity:1;fill-rule:nonzero;stroke:none"
         id="path112" /><path
         d="m 2643.58,453.602 c -23.03,13.468 -221.09,24.257 -472.79,25.957 255.95,-1.278 457.98,-12.258 472.79,-25.957"
         style="fill:#aa9f8f;fill-opacity:1;fill-rule:nonzero;stroke:none"
         id="path114" /><path
         d="m 2120.49,424.281 c -289.08,0 -523.6,12.379 -523.6,27.707 0,15.332 234.52,27.692 523.6,27.692 16.97,0 33.75,-0.039 50.3,-0.121 251.7,-1.7 449.76,-12.489 472.79,-25.957 0.58,-0.532 0.87,-1.071 0.87,-1.614 0,-15.328 -234.39,-27.707 -523.96,-27.707 m -418.08,42.039 c -59.23,-4.308 -94.17,-9.609 -94.17,-15.351 0,-14.399 220.92,-26.09 492.97,-26.09 102.07,0 196.9,1.641 275.58,4.461 145.12,4.609 242.23,13.031 242.23,22.648 0,14.543 -223.18,26.383 -498.53,26.383 -175.17,0 -329.27,-4.812 -418.08,-12.051"
         style="fill:#a99e8e;fill-opacity:1;fill-rule:nonzero;stroke:none"
         id="path116" /><path
         d="m 2101.21,424.879 c -272.05,0 -492.97,11.691 -492.97,26.09 0,5.742 34.94,11.043 94.17,15.351 -50.62,-4.129 -80.03,-9.05 -80.03,-14.332 0,-14.578 223.11,-26.406 498.11,-26.406 93.73,0 181.4,1.367 256.3,3.758 -78.68,-2.82 -173.51,-4.461 -275.58,-4.461"
         style="fill:#a89d8e;fill-opacity:1;fill-rule:nonzero;stroke:none"
         id="path118" /><path
         d="m 2376.79,429.34 c 87.51,3.121 155.03,7.699 190.29,13.07 22.66,2.961 35.15,6.199 35.15,9.578 0,14.09 -215.65,25.512 -481.74,25.512 -62.99,0 -123.19,-0.641 -178.36,-1.809 -97.03,-1.75 -180.52,-5.062 -239.72,-9.371 88.81,7.239 242.91,12.051 418.08,12.051 275.35,0 498.53,-11.84 498.53,-26.383 0,-9.617 -97.11,-18.039 -242.23,-22.648"
         style="fill:#a89d8e;fill-opacity:1;fill-rule:nonzero;stroke:none"
         id="path120" /><path
         d="m 2120.49,425.582 c -275,0 -498.11,11.828 -498.11,26.406 0,5.282 29.41,10.203 80.03,14.332 59.2,4.309 142.69,7.621 239.72,9.371 -177.45,-3.761 -303.01,-12.953 -303.01,-23.703 0,-0.117 0.02,-0.25 0.05,-0.367 -0.03,-0.121 -0.05,-0.242 -0.05,-0.359 0,-13.633 210.04,-24.832 468.73,-24.832 2.1,0 4.19,0 6.28,0 2.12,0 4.24,0 6.36,0 202.07,0 375.05,6.64 446.59,15.98 -35.26,-5.371 -102.78,-9.949 -190.29,-13.07 -74.9,-2.391 -162.57,-3.758 -256.3,-3.758"
         style="fill:#a79d8d;fill-opacity:1;fill-rule:nonzero;stroke:none"
         id="path122" /><path
         d="m 2567.08,442.41 c 17.59,2.692 27.16,5.57 27.16,8.559 0,14.429 -220.74,26.109 -493.03,26.109 -55.66,0 -109.16,-0.488 -159.08,-1.387 55.17,1.168 115.37,1.809 178.36,1.809 266.09,0 481.74,-11.422 481.74,-25.512 0,-3.379 -12.49,-6.617 -35.15,-9.578"
         style="fill:#a79d8d;fill-opacity:1;fill-rule:nonzero;stroke:none"
         id="path124" /><path
         d="m 2120.49,426.43 c -2.12,0 -4.24,0 -6.36,0 256.08,0.179 462.65,11.308 462.65,24.832 0,13.808 -209.94,24.879 -468.93,24.879 -256.4,0 -465.01,-10.879 -468.68,-24.52 -0.03,0.117 -0.05,0.25 -0.05,0.367 0,10.75 125.56,19.942 303.01,23.703 49.92,0.899 103.42,1.387 159.08,1.387 272.29,0 493.03,-11.68 493.03,-26.109 0,-2.989 -9.57,-5.867 -27.16,-8.559 -71.54,-9.34 -244.52,-15.98 -446.59,-15.98"
         style="fill:#a79c8c;fill-opacity:1;fill-rule:nonzero;stroke:none"
         id="path126" /><path
         d="m 2107.85,426.43 c -258.69,0 -468.73,11.199 -468.73,24.832 0,0.117 0.02,0.238 0.05,0.359 3.69,-13.769 214.63,-25.012 474.96,-25.191 -2.09,0 -4.18,0 -6.28,0"
         style="fill:#a79c8c;fill-opacity:1;fill-rule:nonzero;stroke:none"
         id="path128" /><path
         d="m 2114.13,426.43 c -260.33,0.179 -471.27,11.422 -474.96,25.191 3.67,13.641 212.28,24.52 468.68,24.52 258.99,0 468.93,-11.071 468.93,-24.879 0,-13.524 -206.57,-24.653 -462.65,-24.832 m -6.28,47.879 c -240.02,0 -434.84,-10.278 -434.84,-23.047 0,-12.723 194.82,-22.942 434.84,-22.942 240.33,0 434.98,10.219 434.98,22.942 0,12.769 -194.65,23.047 -434.98,23.047"
         style="fill:#a69b8c;fill-opacity:1;fill-rule:nonzero;stroke:none"
         id="path130" /><path
         d="m 2107.85,428.32 c -240.02,0 -434.84,10.219 -434.84,22.942 0,12.769 194.82,23.047 434.84,23.047 240.33,0 434.98,-10.278 434.98,-23.047 0,-12.723 -194.65,-22.942 -434.98,-22.942 m 0,44.66 c -225.97,0 -409.26,-9.71 -409.26,-21.718 0,-11.973 183.29,-21.66 409.26,-21.66 226.17,0 409.49,9.687 409.49,21.66 0,12.008 -183.32,21.718 -409.49,21.718"
         style="fill:#a59b8b;fill-opacity:1;fill-rule:nonzero;stroke:none"
         id="path132" /><path
         d="m 2107.85,429.602 c -225.97,0 -409.26,9.687 -409.26,21.66 0,12.008 183.29,21.718 409.26,21.718 226.17,0 409.49,-9.71 409.49,-21.718 0,-11.973 -183.32,-21.66 -409.49,-21.66 m 0,42.488 c -216.6,0 -392.38,-9.289 -392.38,-20.828 0,-11.52 175.78,-20.731 392.38,-20.731 216.74,0 392.76,9.211 392.76,20.731 0,11.539 -176.02,20.828 -392.76,20.828"
         style="fill:#a49a8b;fill-opacity:1;fill-rule:nonzero;stroke:none"
         id="path134" /><path
         d="m 2107.85,430.531 c -216.6,0 -392.38,9.211 -392.38,20.731 0,11.539 175.78,20.828 392.38,20.828 216.74,0 392.76,-9.289 392.76,-20.828 0,-11.52 -176.02,-20.731 -392.76,-20.731 m 0,40.641 c -207.25,0 -375.31,-8.922 -375.31,-19.91 0,-10.953 168.06,-19.84 375.31,-19.84 207.5,0 375.65,8.887 375.65,19.84 0,10.988 -168.15,19.91 -375.65,19.91"
         style="fill:#a4998a;fill-opacity:1;fill-rule:nonzero;stroke:none"
         id="path136" /><path
         d="m 2107.85,431.422 c -207.25,0 -375.31,8.887 -375.31,19.84 0,10.988 168.06,19.91 375.31,19.91 207.5,0 375.65,-8.922 375.65,-19.91 0,-10.953 -168.15,-19.84 -375.65,-19.84 m 0,38.797 c -197.13,0 -357.03,-8.508 -357.03,-18.957 0,-10.364 159.9,-18.864 357.03,-18.864 197.27,0 357.36,8.5 357.36,18.864 0,10.449 -160.09,18.957 -357.36,18.957"
         style="fill:#a39889;fill-opacity:1;fill-rule:nonzero;stroke:none"
         id="path138" /><path
         d="m 2107.85,432.398 c -197.13,0 -357.03,8.5 -357.03,18.864 0,10.449 159.9,18.957 357.03,18.957 197.27,0 357.36,-8.508 357.36,-18.957 0,-10.364 -160.09,-18.864 -357.36,-18.864 m 0,36 c -178.51,0 -323.06,-7.648 -323.06,-17.136 0,-9.41 144.55,-17.012 323.06,-17.012 178.63,0 323.36,7.602 323.36,17.012 0,9.488 -144.73,17.136 -323.36,17.136"
         style="fill:#a29889;fill-opacity:1;fill-rule:nonzero;stroke:none"
         id="path140" /><path
         d="m 2107.85,434.25 c -178.51,0 -323.06,7.602 -323.06,17.012 0,9.488 144.55,17.136 323.06,17.136 178.63,0 323.36,-7.648 323.36,-17.136 0,-9.41 -144.73,-17.012 -323.36,-17.012"
         style="fill:#a19788;fill-opacity:1;fill-rule:nonzero;stroke:none"
         id="path142" /><path
         d="m 2131.27,1207.07 c -1112.79,0 -2015.254,47.78 -2015.254,106.7 0,58.89 902.464,106.65 2015.254,106.65 1113.2,0 2015.49,-47.76 2015.49,-106.65 0,-58.92 -902.29,-106.7 -2015.49,-106.7 m 0,209.03 c -1067.89,0 -1933.653,-45.81 -1933.653,-102.33 0,-56.55 865.763,-102.34 1933.653,-102.34 1068.24,0 1933.98,45.79 1933.98,102.34 0,56.52 -865.74,102.33 -1933.98,102.33"
         style="fill:#dacdb9;fill-opacity:1;fill-rule:nonzero;stroke:none"
         id="path144" /><path
         d="m 2131.27,1211.43 c -1067.89,0 -1933.653,45.79 -1933.653,102.34 0,56.52 865.763,102.33 1933.653,102.33 1068.24,0 1933.98,-45.81 1933.98,-102.33 0,-56.55 -865.74,-102.34 -1933.98,-102.34 m 0,200.41 c -1023.03,0 -1852.266,-43.94 -1852.266,-98.07 0,-54.19 829.236,-98.12 1852.266,-98.12 1023.28,0 1852.75,43.93 1852.75,98.12 0,54.13 -829.47,98.07 -1852.75,98.07"
         style="fill:#d8ccb8;fill-opacity:1;fill-rule:nonzero;stroke:none"
         id="path146" /><path
         d="m 2131.27,1215.65 c -1023.03,0 -1852.266,43.93 -1852.266,98.12 0,54.13 829.236,98.07 1852.266,98.07 1023.28,0 1852.75,-43.94 1852.75,-98.07 0,-54.19 -829.47,-98.12 -1852.75,-98.12 m 0,193.09 c -990.78,0 -1794.063,-42.53 -1794.063,-94.97 0,-52.48 803.283,-95.02 1794.063,-95.02 991.27,0 1794.55,42.54 1794.55,95.02 0,52.44 -803.28,94.97 -1794.55,94.97"
         style="fill:#d6cab6;fill-opacity:1;fill-rule:nonzero;stroke:none"
         id="path148" /><path
         d="m 2131.27,1218.75 c -990.78,0 -1794.063,42.54 -1794.063,95.02 0,52.44 803.283,94.97 1794.063,94.97 991.27,0 1794.55,-42.53 1794.55,-94.97 0,-52.48 -803.28,-95.02 -1794.55,-95.02 m 0,185.38 c -942.87,0 -1707.032,-40.47 -1707.032,-90.36 0,-49.95 764.162,-90.34 1707.032,-90.34 943.22,0 1707.3,40.39 1707.3,90.34 0,49.89 -764.08,90.36 -1707.3,90.36"
         style="fill:#d4c8b4;fill-opacity:1;fill-rule:nonzero;stroke:none"
         id="path150" /><path
         d="m 2131.27,1223.43 c -942.87,0 -1707.032,40.39 -1707.032,90.34 0,49.89 764.162,90.36 1707.032,90.36 943.22,0 1707.3,-40.47 1707.3,-90.36 0,-49.95 -764.08,-90.34 -1707.3,-90.34 m -21.91,3 c 7.31,0 14.57,-0.01 21.91,-0.01 911.13,0 1649.55,39.08 1649.55,87.35 0,48.2 -738.42,87.34 -1649.55,87.34 -910.78,0 -1649.239,-39.14 -1649.239,-87.34 0,-0.4 0.047,-0.79 0.149,-1.18 -0.102,-0.39 -0.149,-0.78 -0.149,-1.17 0,-46.91 718.909,-85 1605.699,-85 7.21,0 14.45,0.01 21.63,0.01"
         style="fill:#d2c5b2;fill-opacity:1;fill-rule:nonzero;stroke:none"
         id="path152" /><path
         d="m 2131.27,1226.42 c -7.34,0 -14.6,0.01 -21.91,0.01 877.27,0.61 1584.39,38.46 1584.39,84.99 0,46.99 -718.79,84.98 -1606.02,84.98 -879.43,0 -1593.753,-37.37 -1605.55,-83.81 -0.102,0.39 -0.149,0.78 -0.149,1.18 0,48.2 738.459,87.34 1649.239,87.34 911.13,0 1649.55,-39.14 1649.55,-87.34 0,-48.27 -738.42,-87.35 -1649.55,-87.35"
         style="fill:#cfc3b0;fill-opacity:1;fill-rule:nonzero;stroke:none"
         id="path154" /><path
         d="m 2087.73,1226.42 c -886.79,0 -1605.699,38.09 -1605.699,85 0,0.39 0.047,0.78 0.149,1.17 11.843,-47.33 733.95,-85.54 1627.18,-86.16 -7.18,0 -14.42,-0.01 -21.63,-0.01"
         style="fill:#cfc3b0;fill-opacity:1;fill-rule:nonzero;stroke:none"
         id="path156" /><path
         d="m 2109.36,1226.43 c -893.23,0.62 -1615.337,38.83 -1627.18,86.16 11.797,46.44 726.12,83.81 1605.55,83.81 887.23,0 1606.02,-37.99 1606.02,-84.98 0,-46.53 -707.12,-84.38 -1584.39,-84.99 m -21.63,163.9 c -822.67,0 -1489.722,-35.27 -1489.722,-78.91 0,-43.54 667.052,-78.85 1489.722,-78.85 823.05,0 1489.85,35.31 1489.85,78.85 0,43.64 -666.8,78.91 -1489.85,78.91"
         style="fill:#cdc1ae;fill-opacity:1;fill-rule:nonzero;stroke:none"
         id="path158" /><path
         d="m 2087.73,1232.57 c -822.67,0 -1489.722,35.31 -1489.722,78.85 0,43.64 667.052,78.91 1489.722,78.91 823.05,0 1489.85,-35.27 1489.85,-78.91 0,-43.54 -666.8,-78.85 -1489.85,-78.85 m 0,153.19 c -774.64,0 -1402.613,-33.26 -1402.613,-74.34 0,-41.04 627.973,-74.22 1402.613,-74.22 774.85,0 1403.05,33.18 1403.05,74.22 0,41.08 -628.2,74.34 -1403.05,74.34"
         style="fill:#cbbfac;fill-opacity:1;fill-rule:nonzero;stroke:none"
         id="path160" /><path
         d="m 2087.73,1237.2 c -774.64,0 -1402.613,33.18 -1402.613,74.22 0,41.08 627.973,74.34 1402.613,74.34 774.85,0 1403.05,-33.26 1403.05,-74.34 0,-41.04 -628.2,-74.22 -1403.05,-74.22 m 0,145.41 c -742.5,0 -1344.449,-31.83 -1344.449,-71.19 0,-39.31 601.949,-71.17 1344.449,-71.17 742.78,0 1344.83,31.86 1344.83,71.17 0,39.36 -602.05,71.19 -1344.83,71.19"
         style="fill:#c9bdaa;fill-opacity:1;fill-rule:nonzero;stroke:none"
         id="path162" /><path
         d="m 2087.73,1240.25 c -742.5,0 -1344.449,31.86 -1344.449,71.17 0,39.36 601.949,71.19 1344.449,71.19 742.78,0 1344.83,-31.83 1344.83,-71.19 0,-39.31 -602.05,-71.17 -1344.83,-71.17 m 0,139.32 c -710.25,0 -1286.167,-30.48 -1286.167,-68.15 0,-37.6 575.917,-68.1 1286.167,-68.1 710.75,0 1286.55,30.5 1286.55,68.1 0,37.67 -575.8,68.15 -1286.55,68.15"
         style="fill:#c7bba9;fill-opacity:1;fill-rule:nonzero;stroke:none"
         id="path164" /><path
         d="m 2087.73,1243.32 c -710.25,0 -1286.167,30.5 -1286.167,68.1 0,37.67 575.917,68.15 1286.167,68.15 710.75,0 1286.55,-30.48 1286.55,-68.15 0,-37.6 -575.8,-68.1 -1286.55,-68.1 m -700.19,121.26 c -316.23,-11.7 -523.106,-31.13 -523.106,-53.16 0,-35.78 547.776,-64.68 1223.296,-64.68 414.85,0 781.48,10.88 1002.81,27.57 160.14,10.9 255.55,24.6 255.55,39.46 0,35.49 -543.88,64.26 -1214.82,64.26 -280.19,0 -538.23,-5.02 -743.73,-13.45"
         style="fill:#c6baa7;fill-opacity:1;fill-rule:nonzero;stroke:none"
         id="path166" /><path
         d="m 2087.73,1246.74 c -675.52,0 -1223.296,28.9 -1223.296,64.68 0,22.03 206.876,41.46 523.106,53.16 -286.52,-11.76 -470.919,-30.15 -470.919,-50.81 0,-35.49 543.789,-64.33 1214.649,-64.33 389.97,0 736.99,9.74 959.27,24.87 -221.33,-16.69 -587.96,-27.57 -1002.81,-27.57"
         style="fill:#c4b9a6;fill-opacity:1;fill-rule:nonzero;stroke:none"
         id="path168" /><path
         d="m 3090.54,1274.31 c 139.28,10.5 221.02,23.29 221.02,37.11 0,2.16 -1.98,4.29 -5.86,6.39 -37.42,30.92 -500.8,55.66 -1082.79,58.03 -44.37,0.26 -89.51,0.39 -135.18,0.39 -260.41,0 -501.81,-4.31 -700.19,-11.65 205.5,8.43 463.54,13.45 743.73,13.45 670.94,0 1214.82,-28.77 1214.82,-64.26 0,-14.86 -95.41,-28.56 -255.55,-39.46"
         style="fill:#c4b9a6;fill-opacity:1;fill-rule:nonzero;stroke:none"
         id="path170" /><path
         d="m 2131.27,1249.44 c -670.86,0 -1214.649,28.84 -1214.649,64.33 0,20.66 184.399,39.05 470.919,50.81 198.38,7.34 439.78,11.65 700.19,11.65 45.67,0 90.81,-0.13 135.18,-0.39 -30.23,0.12 -60.82,0.18 -91.64,0.18 -649.47,0 -1176.387,-27.84 -1176.387,-62.25 0,-34.42 526.917,-62.33 1176.387,-62.33 649.96,0 1176.87,27.91 1176.87,62.33 0,1.36 -0.82,2.71 -2.44,4.04 3.88,-2.1 5.86,-4.23 5.86,-6.39 0,-13.82 -81.74,-26.61 -221.02,-37.11 -222.28,-15.13 -569.3,-24.87 -959.27,-24.87"
         style="fill:#c3b7a5;fill-opacity:1;fill-rule:nonzero;stroke:none"
         id="path172" /><path
         d="m 3305.7,1317.81 c -56.2,30.47 -509.99,54.7 -1082.79,58.03 581.99,-2.37 1045.37,-27.11 1082.79,-58.03"
         style="fill:#c3b7a5;fill-opacity:1;fill-rule:nonzero;stroke:none"
         id="path174" /><path
         d="m 2131.27,1251.44 c -649.47,0 -1176.387,27.91 -1176.387,62.33 0,34.41 526.917,62.25 1176.387,62.25 30.82,0 61.41,-0.06 91.64,-0.18 572.8,-3.33 1026.59,-27.56 1082.79,-58.03 1.62,-1.33 2.44,-2.68 2.44,-4.04 0,-34.42 -526.91,-62.33 -1176.87,-62.33 m -947.36,93.89 c -127.96,-9.57 -203.168,-21.27 -203.168,-33.91 0,-32.37 495.688,-58.57 1106.988,-58.57 235.58,0 453.97,3.89 633.48,10.51 318.06,10.45 529.79,29.11 529.79,50.41 0,32.73 -501.16,59.2 -1119.73,59.2 -399.03,0 -749.19,-11.03 -947.36,-27.64"
         style="fill:#c1b6a4;fill-opacity:1;fill-rule:nonzero;stroke:none"
         id="path176" /><path
         d="m 2087.73,1252.85 c -611.3,0 -1106.988,26.2 -1106.988,58.57 0,12.64 75.208,24.34 203.168,33.91 -108.89,-9.13 -171.9,-19.96 -171.9,-31.56 0,-32.78 500.98,-59.28 1119.26,-59.28 216.52,0 418.65,3.25 589.94,8.87 -179.51,-6.62 -397.9,-10.51 -633.48,-10.51"
         style="fill:#c0b4a2;fill-opacity:1;fill-rule:nonzero;stroke:none"
         id="path178" /><path
         d="m 2721.21,1263.36 c 191.28,7.07 338.41,17.24 415.11,29.15 49.51,6.57 76.75,13.74 76.75,21.26 0,31.63 -484.3,57.22 -1081.8,57.22 -135.73,0 -265.63,-1.32 -385.35,-3.73 -229.15,-3.94 -425.57,-11.73 -562.01,-21.93 198.17,16.61 548.33,27.64 947.36,27.64 618.57,0 1119.73,-26.47 1119.73,-59.2 0,-21.3 -211.73,-39.96 -529.79,-50.41"
         style="fill:#c0b4a2;fill-opacity:1;fill-rule:nonzero;stroke:none"
         id="path180" /><path
         d="m 2131.27,1254.49 c -618.28,0 -1119.26,26.5 -1119.26,59.28 0,11.6 63.01,22.43 171.9,31.56 136.44,10.2 332.86,17.99 562.01,21.93 -406.97,-8.21 -696.15,-29.05 -696.15,-53.49 0,-0.27 0.03,-0.53 0.09,-0.79 -0.06,-0.26 -0.09,-0.52 -0.09,-0.78 0,-30.76 471.62,-55.69 1053.14,-55.69 4.68,0 9.41,0 14.08,0.01 4.76,-0.01 9.5,-0.01 14.28,-0.01 455.82,0 845.75,14.87 1005.05,36 -76.7,-11.91 -223.83,-22.08 -415.11,-29.15 -171.29,-5.62 -373.42,-8.87 -589.94,-8.87"
         style="fill:#beb3a1;fill-opacity:1;fill-rule:nonzero;stroke:none"
         id="path182" /><path
         d="m 3136.32,1292.51 c 38.21,5.93 58.93,12.29 58.93,18.91 0,32.44 -495.84,58.68 -1107.52,58.68 -119.28,0 -234.15,-0.99 -341.81,-2.84 119.72,2.41 249.62,3.73 385.35,3.73 597.5,0 1081.8,-25.59 1081.8,-57.22 0,-7.52 -27.24,-14.69 -76.75,-21.26"
         style="fill:#beb3a1;fill-opacity:1;fill-rule:nonzero;stroke:none"
         id="path184" /><path
         d="m 2131.27,1256.51 c -4.78,0 -9.52,0 -14.28,0.01 575.02,0.39 1038.85,25.17 1038.85,55.68 0,30.89 -471.45,55.83 -1052.93,55.83 -576.66,0 -1045.25,-24.52 -1053.05,-55.05 -0.06,0.26 -0.09,0.52 -0.09,0.79 0,24.44 289.18,45.28 696.15,53.49 107.66,1.85 222.53,2.84 341.81,2.84 611.68,0 1107.52,-26.24 1107.52,-58.68 0,-6.62 -20.72,-12.98 -58.93,-18.91 -159.3,-21.13 -549.23,-36 -1005.05,-36"
         style="fill:#bdb1a0;fill-opacity:1;fill-rule:nonzero;stroke:none"
         id="path186" /><path
         d="m 2102.91,1256.51 c -581.52,0 -1053.14,24.93 -1053.14,55.69 0,0.26 0.03,0.52 0.09,0.78 7.89,-31.08 481.49,-56.06 1067.13,-56.46 -4.67,-0.01 -9.4,-0.01 -14.08,-0.01"
         style="fill:#bdb1a0;fill-opacity:1;fill-rule:nonzero;stroke:none"
         id="path188" /><path
         d="m 2116.99,1256.52 c -585.64,0.4 -1059.24,25.38 -1067.13,56.46 7.8,30.53 476.39,55.05 1053.05,55.05 581.48,0 1052.93,-24.94 1052.93,-55.83 0,-30.51 -463.83,-55.29 -1038.85,-55.68 m -14.08,107.37 c -539.51,0 -976.97,-23.09 -976.97,-51.69 0,-28.53 437.46,-51.67 976.97,-51.67 539.59,0 976.95,23.14 976.95,51.67 0,28.6 -437.36,51.69 -976.95,51.69"
         style="fill:#bbb09e;fill-opacity:1;fill-rule:nonzero;stroke:none"
         id="path190" /><path
         d="m 2102.91,1260.53 c -539.51,0 -976.97,23.14 -976.97,51.67 0,28.6 437.46,51.69 976.97,51.69 539.59,0 976.95,-23.09 976.95,-51.69 0,-28.53 -437.36,-51.67 -976.95,-51.67 m 0,100.42 c -508.01,0 -919.92,-21.79 -919.92,-48.75 0,-26.87 411.91,-48.65 919.92,-48.65 507.95,0 919.9,21.78 919.9,48.65 0,26.96 -411.95,48.75 -919.9,48.75"
         style="fill:#baaf9d;fill-opacity:1;fill-rule:nonzero;stroke:none"
         id="path192" /><path
         d="m 2102.91,1263.55 c -508.01,0 -919.92,21.78 -919.92,48.65 0,26.96 411.91,48.75 919.92,48.75 507.95,0 919.9,-21.79 919.9,-48.75 0,-26.87 -411.95,-48.65 -919.9,-48.65 m 0,95.33 c -486.93,0 -881.78,-20.87 -881.78,-46.68 0,-25.72 394.85,-46.6 881.78,-46.6 486.91,0 881.7,20.88 881.7,46.6 0,25.81 -394.79,46.68 -881.7,46.68"
         style="fill:#b8ad9c;fill-opacity:1;fill-rule:nonzero;stroke:none"
         id="path194" /><path
         d="m 2102.91,1265.6 c -486.93,0 -881.78,20.88 -881.78,46.6 0,25.81 394.85,46.68 881.78,46.68 486.91,0 881.7,-20.87 881.7,-46.68 0,-25.72 -394.79,-46.6 -881.7,-46.6 m -228.78,89.61 c -354.69,-5.28 -614.75,-22.52 -614.75,-43.01 0,-24.63 377.65,-44.7 843.53,-44.7 388.49,0 715.65,13.95 813.64,32.87 25.68,4.22 39.54,8.72 39.54,13.4 0,24.13 -369.04,43.6 -824.82,43.6 -89.78,0 -176.22,-0.76 -257.14,-2.16"
         style="fill:#b7ac9b;fill-opacity:1;fill-rule:nonzero;stroke:none"
         id="path196" /><path
         d="m 2102.91,1267.5 c -465.88,0 -843.53,20.07 -843.53,44.7 0,20.49 260.06,37.73 614.75,43.01 -285.4,-4.94 -502.14,-17.89 -554.95,-33.86 -12.18,-2.95 -18.59,-6.01 -18.59,-9.15 0,-23.48 359.08,-42.38 802.32,-42.38 60.27,0 119.01,0.35 175.48,1.01 301.53,2.87 545.96,14.39 638.16,29.54 -97.99,-18.92 -425.15,-32.87 -813.64,-32.87"
         style="fill:#b5aa99;fill-opacity:1;fill-rule:nonzero;stroke:none"
         id="path198" /><path
         d="m 2102.91,1269.82 c -443.24,0 -802.32,18.9 -802.32,42.38 0,3.14 6.41,6.2 18.59,9.15 -8.14,-2.46 -12.38,-5 -12.38,-7.58 0,-24.11 369.2,-43.63 824.47,-43.63 50.21,0 99.39,0.24 147.12,0.69 -56.47,-0.66 -115.21,-1.01 -175.48,-1.01"
         style="fill:#b4a998;fill-opacity:1;fill-rule:nonzero;stroke:none"
         id="path200" /><path
         d="m 2916.55,1300.37 c 19.52,3.77 29.95,7.74 29.95,11.83 0,24.69 -377.69,44.67 -843.59,44.67 -79.31,0 -156.02,-0.58 -228.78,-1.66 80.92,1.4 167.36,2.16 257.14,2.16 455.78,0 824.82,-19.47 824.82,-43.6 0,-4.68 -13.86,-9.18 -39.54,-13.4"
         style="fill:#b5aa99;fill-opacity:1;fill-rule:nonzero;stroke:none"
         id="path202" /><path
         d="m 2278.39,1270.83 c 180.9,2.13 338.74,7.47 450.79,14.85 125.04,7.47 200.94,17.3 200.94,28.09 0,23.39 -357.41,42.32 -798.85,42.32 -207.51,0 -396.48,-4.19 -538.44,-11.07 -136.11,-5.94 -234.56,-14.21 -273.65,-23.67 52.81,15.97 269.55,28.92 554.95,33.86 72.76,1.08 149.47,1.66 228.78,1.66 465.9,0 843.59,-19.98 843.59,-44.67 0,-4.09 -10.43,-8.06 -29.95,-11.83 -92.2,-15.15 -336.63,-26.67 -638.16,-29.54"
         style="fill:#b4a998;fill-opacity:1;fill-rule:nonzero;stroke:none"
         id="path204" /><path
         d="m 2131.27,1270.14 c -455.27,0 -824.47,19.52 -824.47,43.63 0,2.58 4.24,5.12 12.38,7.58 39.09,9.46 137.54,17.73 273.65,23.67 -159.75,-7.73 -259.96,-18.87 -259.96,-31.25 0,-23.41 357.38,-42.33 798.4,-42.33 238.02,0 451.61,5.5 597.91,14.24 -112.05,-7.38 -269.89,-12.72 -450.79,-14.85 -47.73,-0.45 -96.91,-0.69 -147.12,-0.69"
         style="fill:#b2a797;fill-opacity:1;fill-rule:nonzero;stroke:none"
         id="path206" /><path
         d="m 2729.18,1285.68 c 110.12,7.25 176.02,16.47 176.02,26.52 0,23.49 -359.24,42.51 -802.29,42.51 -193.76,0 -371.45,-3.63 -510.08,-9.69 141.96,6.88 330.93,11.07 538.44,11.07 441.44,0 798.85,-18.93 798.85,-42.32 0,-10.79 -75.9,-20.62 -200.94,-28.09"
         style="fill:#b2a797;fill-opacity:1;fill-rule:nonzero;stroke:none"
         id="path208" /><path
         d="m 2131.27,1271.44 c -441.02,0 -798.4,18.92 -798.4,42.33 0,12.38 100.21,23.52 259.96,31.25 138.63,6.06 316.32,9.69 510.08,9.69 443.05,0 802.29,-19.02 802.29,-42.51 0,-10.05 -65.9,-19.27 -176.02,-26.52 -146.3,-8.74 -359.89,-14.24 -597.91,-14.24 m -172.62,3.13 c 55.46,-0.68 113.23,-1.04 172.62,-1.04 419.86,0 760.12,18 760.12,40.24 0,22.19 -340.26,40.25 -760.12,40.25 -419.77,0 -759.86,-18.06 -759.86,-40.25 0,-3.09 6.55,-6.09 18.94,-8.98 56.21,-15.18 281.71,-27.16 568.3,-30.22"
         style="fill:#b1a695;fill-opacity:1;fill-rule:nonzero;stroke:none"
         id="path210" /><path
         d="m 1958.65,1274.57 c -286.59,3.06 -512.09,15.04 -568.3,30.22 64.32,-14.97 286.14,-26.75 568.3,-30.22"
         style="fill:#b0a595;fill-opacity:1;fill-rule:nonzero;stroke:none"
         id="path212" /><path
         d="m 2131.27,1273.53 c -59.39,0 -117.16,0.36 -172.62,1.04 46.62,-0.49 94.88,-0.75 144.26,-0.75 151.73,0 292.59,2.46 409.09,6.67 212.08,6.83 353.68,19.19 353.68,33.28 0,21.47 -328.63,38.85 -734.41,38.85 -264.39,0 -496.11,-7.39 -625.31,-18.49 -81.43,-6.21 -129.14,-13.77 -129.14,-21.93 0,-2.53 4.65,-5.01 13.53,-7.41 -12.39,2.89 -18.94,5.89 -18.94,8.98 0,22.19 340.09,40.25 759.86,40.25 419.86,0 760.12,-18.06 760.12,-40.25 0,-22.24 -340.26,-40.24 -760.12,-40.24"
         style="fill:#b0a595;fill-opacity:1;fill-rule:nonzero;stroke:none"
         id="path214" /><path
         d="m 2102.91,1273.82 c -49.38,0 -97.64,0.26 -144.26,0.75 -282.16,3.47 -503.98,15.25 -568.3,30.22 -8.88,2.4 -13.53,4.88 -13.53,7.41 0,8.16 47.71,15.72 129.14,21.93 -68.92,-5.92 -108.67,-12.89 -108.67,-20.36 0,-0.17 0.02,-0.35 0.06,-0.52 -0.04,-0.16 -0.06,-0.33 -0.06,-0.5 0,-20.91 319.99,-37.9 714.7,-37.9 3.21,0 6.38,0 9.57,0 3.24,0 6.47,0 9.71,0 139.41,0 269.73,2.06 380.73,5.64 -116.5,-4.21 -257.36,-6.67 -409.09,-6.67"
         style="fill:#afa594;fill-opacity:1;fill-rule:nonzero;stroke:none"
         id="path216" /><path
         d="m 2512,1280.49 c 191.35,6.91 316.96,18.54 316.96,31.71 0,3.14 -7.05,6.19 -20.35,9.1 -66.45,15.19 -305.84,26.91 -602.37,28.99 -33.74,0.25 -68.26,0.38 -103.33,0.38 -247.33,0 -465.84,-6.53 -596.95,-16.54 129.2,11.1 360.92,18.49 625.31,18.49 405.78,0 734.41,-17.38 734.41,-38.85 0,-14.09 -141.6,-26.45 -353.68,-33.28"
         style="fill:#afa594;fill-opacity:1;fill-rule:nonzero;stroke:none"
         id="path218" /><path
         d="m 2131.27,1274.85 c -3.24,0 -6.47,0 -9.71,0 390.33,0.28 705.43,17.16 705.43,37.9 0,2.94 -6.35,5.8 -18.38,8.55 13.3,-2.91 20.35,-5.96 20.35,-9.1 0,-13.17 -125.61,-24.8 -316.96,-31.71 -111,-3.58 -241.32,-5.64 -380.73,-5.64 m -733.92,38.4 c -0.04,0.17 -0.06,0.35 -0.06,0.52 0,7.47 39.75,14.44 108.67,20.36 131.11,10.01 349.62,16.54 596.95,16.54 35.07,0 69.59,-0.13 103.33,-0.38 -30.84,0.21 -62.3,0.32 -94.25,0.32 -391.53,0 -709.54,-16.72 -714.64,-37.36"
         style="fill:#afa494;fill-opacity:1;fill-rule:nonzero;stroke:none"
         id="path220" /><path
         d="m 2111.99,1274.85 c -394.71,0 -714.7,16.99 -714.7,37.9 0,0.17 0.02,0.34 0.06,0.5 5.11,-21.04 326.49,-38.12 724.21,-38.4 -3.19,0 -6.36,0 -9.57,0"
         style="fill:#afa494;fill-opacity:1;fill-rule:nonzero;stroke:none"
         id="path222" /><path
         d="m 2808.61,1321.3 c -69.15,15.16 -307.15,26.76 -602.37,28.99 296.53,-2.08 535.92,-13.8 602.37,-28.99"
         style="fill:#afa494;fill-opacity:1;fill-rule:nonzero;stroke:none"
         id="path224" /><path
         d="m 2121.56,1274.85 c -397.72,0.28 -719.1,17.36 -724.21,38.4 5.1,20.64 323.11,37.36 714.64,37.36 31.95,0 63.41,-0.11 94.25,-0.32 295.22,-2.23 533.22,-13.83 602.37,-28.99 12.03,-2.75 18.38,-5.61 18.38,-8.55 0,-20.74 -315.1,-37.62 -705.43,-37.9 m -9.57,72.97 c -366.17,0 -663.1,-15.7 -663.1,-35.07 0,-19.42 296.93,-35.13 663.1,-35.13 366.37,0 663.28,15.71 663.28,35.13 0,19.37 -296.91,35.07 -663.28,35.07"
         style="fill:#aea393;fill-opacity:1;fill-rule:nonzero;stroke:none"
         id="path226" /><path
         d="m 2111.99,1277.62 c -366.17,0 -663.1,15.71 -663.1,35.13 0,19.37 296.93,35.07 663.1,35.07 366.37,0 663.28,-15.7 663.28,-35.07 0,-19.42 -296.91,-35.13 -663.28,-35.13 m 0,68.15 c -344.74,0 -624.41,-14.75 -624.41,-33.02 0,-18.31 279.67,-33.09 624.41,-33.09 345.04,0 624.61,14.78 624.61,33.09 0,18.27 -279.57,33.02 -624.61,33.02"
         style="fill:#ada292;fill-opacity:1;fill-rule:nonzero;stroke:none"
         id="path228" /><path
         d="m 2111.99,1279.66 c -344.74,0 -624.41,14.78 -624.41,33.09 0,18.27 279.67,33.02 624.41,33.02 345.04,0 624.61,-14.75 624.61,-33.02 0,-18.31 -279.57,-33.09 -624.61,-33.09 m 0,64.73 c -330.52,0 -598.45,-14.16 -598.45,-31.64 0,-17.58 267.93,-31.64 598.45,-31.64 330.65,0 598.69,14.06 598.69,31.64 0,17.48 -268.04,31.64 -598.69,31.64"
         style="fill:#aca292;fill-opacity:1;fill-rule:nonzero;stroke:none"
         id="path230" /><path
         d="m 2111.99,1281.11 c -330.52,0 -598.45,14.06 -598.45,31.64 0,17.48 267.93,31.64 598.45,31.64 330.65,0 598.69,-14.16 598.69,-31.64 0,-17.58 -268.04,-31.64 -598.69,-31.64 m 0,61.98 c -316.17,0 -572.71,-13.59 -572.71,-30.34 0,-16.74 256.54,-30.4 572.71,-30.4 316.25,0 572.72,13.66 572.72,30.4 0,16.75 -256.47,30.34 -572.72,30.34"
         style="fill:#aca191;fill-opacity:1;fill-rule:nonzero;stroke:none"
         id="path232" /><path
         d="m 2111.99,1282.35 c -316.17,0 -572.71,13.66 -572.71,30.4 0,16.75 256.54,30.34 572.71,30.34 316.25,0 572.72,-13.59 572.72,-30.34 0,-16.74 -256.47,-30.4 -572.72,-30.4 m -308.93,54.13 c -142.4,-5.19 -235.77,-13.88 -235.77,-23.73 0,-15.98 244.02,-28.86 544.7,-28.86 182.53,0 344.11,4.75 442.93,12.05 73.42,4.89 117.29,11.08 117.29,17.83 0,15.82 -242.11,28.57 -540.94,28.57 -123.43,0 -237.2,-2.18 -328.21,-5.86"
         style="fill:#aba090;fill-opacity:1;fill-rule:nonzero;stroke:none"
         id="path234" /><path
         d="m 2111.99,1283.89 c -300.68,0 -544.7,12.88 -544.7,28.86 0,9.85 93.37,18.54 235.77,23.73 -129,-5.21 -212.24,-13.44 -212.24,-22.71 0,-15.86 242.05,-28.64 540.45,-28.64 171.65,0 324.57,4.22 423.65,10.81 -98.82,-7.3 -260.4,-12.05 -442.93,-12.05"
         style="fill:#aaa090;fill-opacity:1;fill-rule:nonzero;stroke:none"
         id="path236" /><path
         d="m 2554.92,1295.94 c 64,4.73 101.68,10.53 101.68,16.81 0,0.89 -0.75,1.76 -2.24,2.63 -15.02,13.9 -222.92,25.01 -484.28,26.02 -19.09,0.1 -38.47,0.16 -58.09,0.16 -114.68,0 -221.12,-1.88 -308.93,-5.08 91.01,3.68 204.78,5.86 328.21,5.86 298.83,0 540.94,-12.75 540.94,-28.57 0,-6.75 -43.87,-12.94 -117.29,-17.83"
         style="fill:#aaa090;fill-opacity:1;fill-rule:nonzero;stroke:none"
         id="path238" /><path
         d="m 2131.27,1285.13 c -298.4,0 -540.45,12.78 -540.45,28.64 0,9.27 83.24,17.5 212.24,22.71 87.81,3.2 194.25,5.08 308.93,5.08 19.62,0 39,-0.06 58.09,-0.16 -12.82,0.05 -25.75,0.07 -38.81,0.07 -289.08,0 -523.59,-12.37 -523.59,-27.7 0,-15.33 234.51,-27.71 523.59,-27.71 289.57,0 523.96,12.38 523.96,27.71 0,0.54 -0.29,1.08 -0.87,1.61 1.49,-0.87 2.24,-1.74 2.24,-2.63 0,-6.28 -37.68,-12.08 -101.68,-16.81 -99.08,-6.59 -252,-10.81 -423.65,-10.81"
         style="fill:#aa9f8f;fill-opacity:1;fill-rule:nonzero;stroke:none"
         id="path240" /><path
         d="m 2654.36,1315.38 c -23.38,13.67 -227.15,24.58 -484.28,26.02 261.36,-1.01 469.26,-12.12 484.28,-26.02"
         style="fill:#aa9f8f;fill-opacity:1;fill-rule:nonzero;stroke:none"
         id="path242" /><path
         d="m 2131.27,1286.06 c -289.08,0 -523.59,12.38 -523.59,27.71 0,15.33 234.51,27.7 523.59,27.7 13.06,0 25.99,-0.02 38.81,-0.07 257.13,-1.44 460.9,-12.35 484.28,-26.02 0.58,-0.53 0.87,-1.07 0.87,-1.61 0,-15.33 -234.39,-27.71 -523.96,-27.71 m -418.4,42.01 c -59.02,-4.3 -93.85,-9.59 -93.85,-15.32 0,-14.39 220.92,-26.1 492.97,-26.1 102.39,0 197.47,1.65 276.29,4.48 144.73,4.62 241.52,13.03 241.52,22.64 0,14.54 -223.18,26.38 -498.53,26.38 -175.37,0 -329.64,-4.81 -418.4,-12.08"
         style="fill:#a99e8e;fill-opacity:1;fill-rule:nonzero;stroke:none"
         id="path244" /><path
         d="m 2111.99,1286.65 c -272.05,0 -492.97,11.71 -492.97,26.1 0,5.73 34.83,11.02 93.85,15.32 -50.43,-4.12 -79.71,-9.04 -79.71,-14.3 0,-14.59 223.11,-26.41 498.11,-26.41 94.03,0 181.96,1.38 257.01,3.77 -78.82,-2.83 -173.9,-4.48 -276.29,-4.48"
         style="fill:#a89d8e;fill-opacity:1;fill-rule:nonzero;stroke:none"
         id="path246" /><path
         d="m 2388.28,1291.13 c 86.9,3.13 154.02,7.68 189.27,13.02 22.86,2.97 35.46,6.22 35.46,9.62 0,14.09 -215.65,25.5 -481.74,25.5 -62.88,0 -122.97,-0.64 -178.06,-1.8 -97.35,-1.75 -181.05,-5.07 -240.34,-9.4 88.76,7.27 243.03,12.08 418.4,12.08 275.35,0 498.53,-11.84 498.53,-26.38 0,-9.61 -96.79,-18.02 -241.52,-22.64"
         style="fill:#a89d8e;fill-opacity:1;fill-rule:nonzero;stroke:none"
         id="path248" /><path
         d="m 2131.27,1287.36 c -275,0 -498.11,11.82 -498.11,26.41 0,5.26 29.28,10.18 79.71,14.3 59.29,4.33 142.99,7.65 240.34,9.4 -177.6,-3.75 -303.31,-12.95 -303.31,-23.7 0,-0.13 0.02,-0.25 0.05,-0.37 -0.03,-0.12 -0.05,-0.24 -0.05,-0.37 0,-13.62 210.04,-24.82 468.73,-24.82 2.11,0 4.19,0 6.28,0 2.12,0 4.24,0 6.36,0 201.78,0 374.55,6.61 446.28,15.94 -35.25,-5.34 -102.37,-9.89 -189.27,-13.02 -75.05,-2.39 -162.98,-3.77 -257.01,-3.77"
         style="fill:#a79d8d;fill-opacity:1;fill-rule:nonzero;stroke:none"
         id="path250" /><path
         d="m 2577.55,1304.15 c 17.8,2.69 27.47,5.59 27.47,8.6 0,14.42 -220.74,26.11 -493.03,26.11 -55.54,0 -108.95,-0.49 -158.78,-1.39 55.09,1.16 115.18,1.8 178.06,1.8 266.09,0 481.74,-11.41 481.74,-25.5 0,-3.4 -12.6,-6.65 -35.46,-9.62"
         style="fill:#a79d8d;fill-opacity:1;fill-rule:nonzero;stroke:none"
         id="path252" /><path
         d="m 2131.27,1288.21 c -2.12,0 -4.24,0 -6.36,0 256.08,0.18 462.65,11.31 462.65,24.82 0,13.82 -209.94,24.89 -468.93,24.89 -256.4,0 -465.01,-10.87 -468.68,-24.52 -0.03,0.12 -0.05,0.24 -0.05,0.37 0,10.75 125.71,19.95 303.31,23.7 49.83,0.9 103.24,1.39 158.78,1.39 272.29,0 493.03,-11.69 493.03,-26.11 0,-3.01 -9.67,-5.91 -27.47,-8.6 -71.73,-9.33 -244.5,-15.94 -446.28,-15.94"
         style="fill:#a79c8c;fill-opacity:1;fill-rule:nonzero;stroke:none"
         id="path254" /><path
         d="m 2118.63,1288.21 c -258.69,0 -468.73,11.2 -468.73,24.82 0,0.13 0.02,0.25 0.05,0.37 3.69,-13.78 214.63,-25.01 474.96,-25.19 -2.09,0 -4.17,0 -6.28,0"
         style="fill:#a79c8c;fill-opacity:1;fill-rule:nonzero;stroke:none"
         id="path256" /><path
         d="m 2124.91,1288.21 c -260.33,0.18 -471.27,11.41 -474.96,25.19 3.67,13.65 212.28,24.52 468.68,24.52 258.99,0 468.93,-11.07 468.93,-24.89 0,-13.51 -206.57,-24.64 -462.65,-24.82 m -6.28,47.89 c -240.02,0 -434.84,-10.29 -434.84,-23.07 0,-12.71 194.82,-22.93 434.84,-22.93 240.33,0 434.98,10.22 434.98,22.93 0,12.78 -194.65,23.07 -434.98,23.07"
         style="fill:#a69b8c;fill-opacity:1;fill-rule:nonzero;stroke:none"
         id="path258" /><path
         d="m 2118.63,1290.1 c -240.02,0 -434.84,10.22 -434.84,22.93 0,12.78 194.82,23.07 434.84,23.07 240.33,0 434.98,-10.29 434.98,-23.07 0,-12.71 -194.65,-22.93 -434.98,-22.93 m 0,44.66 c -225.97,0 -409.26,-9.72 -409.26,-21.73 0,-11.96 183.29,-21.66 409.26,-21.66 226.17,0 409.5,9.7 409.5,21.66 0,12.01 -183.33,21.73 -409.5,21.73"
         style="fill:#a59b8b;fill-opacity:1;fill-rule:nonzero;stroke:none"
         id="path260" /><path
         d="m 2118.63,1291.37 c -225.97,0 -409.26,9.7 -409.26,21.66 0,12.01 183.29,21.73 409.26,21.73 226.17,0 409.5,-9.72 409.5,-21.73 0,-11.96 -183.33,-21.66 -409.5,-21.66 m 0,42.49 c -216.6,0 -392.38,-9.28 -392.38,-20.83 0,-11.51 175.78,-20.72 392.38,-20.72 216.74,0 392.76,9.21 392.76,20.72 0,11.55 -176.02,20.83 -392.76,20.83"
         style="fill:#a49a8b;fill-opacity:1;fill-rule:nonzero;stroke:none"
         id="path262" /><path
         d="m 2118.63,1292.31 c -216.6,0 -392.38,9.21 -392.38,20.72 0,11.55 175.78,20.83 392.38,20.83 216.74,0 392.76,-9.28 392.76,-20.83 0,-11.51 -176.02,-20.72 -392.76,-20.72 m 0,40.64 c -207.24,0 -375.31,-8.92 -375.31,-19.92 0,-10.95 168.07,-19.83 375.31,-19.83 207.5,0 375.65,8.88 375.65,19.83 0,11 -168.15,19.92 -375.65,19.92"
         style="fill:#a4998a;fill-opacity:1;fill-rule:nonzero;stroke:none"
         id="path264" /><path
         d="m 2118.63,1293.2 c -207.24,0 -375.31,8.88 -375.31,19.83 0,11 168.07,19.92 375.31,19.92 207.5,0 375.65,-8.92 375.65,-19.92 0,-10.95 -168.15,-19.83 -375.65,-19.83 m 0,38.8 c -197.13,0 -357.03,-8.52 -357.03,-18.97 0,-10.36 159.9,-18.86 357.03,-18.86 197.27,0 357.37,8.5 357.37,18.86 0,10.45 -160.1,18.97 -357.37,18.97"
         style="fill:#a39889;fill-opacity:1;fill-rule:nonzero;stroke:none"
         id="path266" /><path
         d="m 2118.63,1294.17 c -197.13,0 -357.03,8.5 -357.03,18.86 0,10.45 159.9,18.97 357.03,18.97 197.27,0 357.37,-8.52 357.37,-18.97 0,-10.36 -160.1,-18.86 -357.37,-18.86 m 0,36 c -178.51,0 -323.06,-7.64 -323.06,-17.14 0,-9.41 144.55,-17.02 323.06,-17.02 178.64,0 323.36,7.61 323.36,17.02 0,9.5 -144.72,17.14 -323.36,17.14"
         style="fill:#a29889;fill-opacity:1;fill-rule:nonzero;stroke:none"
         id="path268" /><path
         d="m 2118.63,1296.01 c -178.51,0 -323.06,7.61 -323.06,17.02 0,9.5 144.55,17.14 323.06,17.14 178.64,0 323.36,-7.64 323.36,-17.14 0,-9.41 -144.72,-17.02 -323.36,-17.02"
         style="fill:#a19788;fill-opacity:1;fill-rule:nonzero;stroke:none"
         id="path270" /><path
         d="m 891.086,1825.87 c 161.514,-495.67 832.814,-732.6 1342.074,-581.2 509.34,151.42 910.93,707.3 775.39,1210.7 L 891.086,1825.87"
         style="fill:#859338;fill-opacity:1;fill-rule:nonzero;stroke:none"
         id="path272" /><path
         d="m 1937.1,1624.49 c 130.58,-94.32 420.19,43.22 604.84,242.08 172.22,185.52 183.52,437.68 54.76,575.03 l 823.03,1038.59 c 0,0 66.84,72.96 -40.38,150.47 -97.85,70.72 -155.48,-8.89 -155.48,-8.89 L 2494.69,2512.14 c -171.9,71.91 -409.3,-12.52 -527.07,-230.51 -142.11,-263.42 -156.27,-566.21 -30.52,-657.14"
         style="fill:#52423b;fill-opacity:1;fill-rule:nonzero;stroke:none"
         id="path274" /><path
         d="m 749.414,2444.87 c 0,0 57.274,-335.39 191.621,-441.21 108.395,-85.31 263.835,-18.93 319.905,9.92 -50.3,57.47 -194.87,207.89 -464.971,381.85 0,0 265.201,-120.68 490.131,-356.44 13.67,50.9 51.95,232.6 -62.85,323.03 -134.41,105.78 -473.836,82.85 -473.836,82.85"
         style="fill:#859338;fill-opacity:1;fill-rule:nonzero;stroke:none"
         id="path276" /><path
         d="m 1533.18,2549.75 c 0,0 81.7,-198.92 45.18,-300.82 -29.52,-82.01 -135.15,-98.47 -174.86,-101.9 7.66,47.74 34.72,176.83 121.29,360.66 0,0 -101.72,-153.54 -143.33,-355.44 -24.34,22.78 -105.81,107.33 -74.53,194.31 36.58,101.79 226.25,203.19 226.25,203.19"
         style="fill:#859338;fill-opacity:1;fill-rule:nonzero;stroke:none"
         id="path278" /><path
         d="M 2156.27,1441.53 C 1606.02,1277.96 1019.31,1562.35 725.801,2093.09 l -5.567,-1.64 C 950.52,1401.55 1619.02,994.301 2236.3,1177.8 c 617.23,183.52 954.75,889.82 770.65,1593.47 l -8.43,-2.53 c 44.07,-604.9 -291.93,-1163.6 -842.25,-1327.21"
         style="fill:#52423b;fill-opacity:1;fill-rule:nonzero;stroke:none"
         id="path280" /><path
         d="m 1699.96,2375.65 c 198.32,123.29 302.23,421.29 27.04,628.05 -275.18,206.63 -146.9,565.55 -146.9,565.55 0,0 -292.7,-336.65 -4.28,-632.06 307.27,-314.57 124.14,-561.54 124.14,-561.54"
         style="fill:#52423b;fill-opacity:1;fill-rule:nonzero;stroke:none"
         id="path282" /><path
         d="m 1805.63,3095.53 c 142.73,88.54 217.36,302.71 19.47,451.37 -197.85,148.67 -105.48,406.55 -105.48,406.55 0,0 -210.52,-242.09 -3.29,-454.34 220.95,-226.31 89.3,-403.58 89.3,-403.58"
         style="fill:#52423b;fill-opacity:1;fill-rule:nonzero;stroke:none"
         id="path284" /><path
         d="M 4250.74,451.961 -1.21094,458.109 1.25,1315.86 4253.2,1309.7 4250.74,451.961"
         style="fill:#dbceba;fill-opacity:1;fill-rule:nonzero;stroke:none"
         id="path286" /><path
         d="m 1238.59,1012.86 c -16.62,0 -30.58,-5.78 -41.91,-17.34 -11.33,-11.551 -16.99,-26.239 -16.99,-44.071 0,-19.847 7.13,-35.558 21.38,-47.109 11.1,-9.039 23.79,-13.551 38.13,-13.551 16.21,0 30.02,5.859 41.43,17.582 11.4,11.711 17.1,26.16 17.1,43.34 0,17.09 -5.74,31.539 -17.22,43.391 -11.49,11.838 -25.45,17.758 -41.92,17.758 z m 0.37,33.45 c 25.42,0 47.25,-9.2 65.53,-27.59 18.28,-18.4 27.42,-40.822 27.42,-67.271 0,-26.199 -9.02,-48.379 -27.05,-66.519 -18.04,-18.149 -39.92,-27.231 -65.66,-27.231 -26.95,0 -49.34,9.321 -67.17,27.961 -17.83,18.629 -26.76,40.77 -26.76,66.41 0,17.168 4.16,32.961 12.46,47.36 8.31,14.4 19.73,25.81 34.26,34.25 14.53,8.42 30.2,12.63 46.97,12.63"
         style="fill:#351f17;fill-opacity:1;fill-rule:nonzero;stroke:none"
         id="path288" /><path
         d="m 1400.64,971.602 h 10.71 c 10.88,0 18.36,1.429 22.46,4.289 4.1,2.847 6.13,7.589 6.13,14.191 0,3.93 -0.99,7.34 -3.03,10.238 -2.03,2.89 -4.74,4.98 -8.16,6.25 -3.4,1.26 -9.65,1.89 -18.73,1.89 h -9.38 z m -34.18,70.178 h 36.22 c 19.84,0 33.96,-1.75 42.36,-5.31 8.42,-3.53 15.19,-9.41 20.31,-17.64 5.12,-8.22 7.68,-17.93 7.68,-29.158 0,-11.813 -2.83,-21.672 -8.48,-29.602 -5.66,-7.929 -14.18,-13.949 -25.57,-18.011 l 42.54,-79.84 h -37.36 l -40.39,76.051 h -3.13 v -76.051 h -34.18 v 179.561"
         style="fill:#351f17;fill-opacity:1;fill-rule:nonzero;stroke:none"
         id="path290" /><path
         d="m 1674.94,1012.49 -24.08,-23.799 c -15.22,16.109 -32.99,24.169 -53.26,24.169 -17.68,0 -32.48,-5.86 -44.42,-17.579 -11.93,-11.722 -17.89,-25.961 -17.89,-42.722 0,-17.34 6.19,-32.028 18.58,-44.079 12.38,-12.039 27.65,-18.058 45.82,-18.058 11.81,0 21.77,2.476 29.88,7.449 8.11,4.961 14.65,12.731 19.61,23.309 h -52.01 v 32.109 h 90.33 l 0.25,-7.578 c 0,-15.699 -4.06,-30.59 -12.2,-44.672 -8.15,-14.078 -18.67,-24.82 -31.62,-32.219 -12.93,-7.41 -28.11,-11.121 -45.53,-11.121 -18.63,0 -35.26,4.051 -49.86,12.153 -14.61,8.109 -26.18,19.628 -34.67,34.609 -8.52,14.969 -12.76,31.129 -12.76,48.461 0,23.769 7.85,44.43 23.56,62.008 18.63,20.92 42.89,31.38 72.75,31.38 15.63,0 30.24,-2.89 43.83,-8.67 11.46,-4.88 22.7,-13.27 33.69,-25.15"
         style="fill:#351f17;fill-opacity:1;fill-rule:nonzero;stroke:none"
         id="path292" /><path
         d="m 1791.45,994.191 -24.09,-61.652 h 48.05 z m -17.54,47.589 h 34.66 l 69.07,-179.561 h -35.53 l -14.04,36.992 h -73.28 l -14.61,-36.992 h -35.51 l 69.24,179.561"
         style="fill:#351f17;fill-opacity:1;fill-rule:nonzero;stroke:none"
         id="path294" /><path
         d="m 1904.18,1041.78 h 32.79 l 76.84,-118.159 v 118.159 h 34.18 V 862.219 h -32.87 l -76.76,117.812 V 862.219 h -34.18 v 179.561"
         style="fill:#351f17;fill-opacity:1;fill-rule:nonzero;stroke:none"
         id="path296" /><path
         d="m 2086.56,1041.78 h 33.95 V 862.219 h -33.95 v 179.561"
         style="fill:#351f17;fill-opacity:1;fill-rule:nonzero;stroke:none"
         id="path298" /><path
         d="m 2323.98,1010.23 -23.9,-22.781 c -16.25,17.191 -34.55,25.781 -54.88,25.781 -17.15,0 -31.61,-5.87 -43.36,-17.601 -11.74,-11.738 -17.62,-26.188 -17.62,-43.379 0,-11.969 2.6,-22.602 7.81,-31.891 5.2,-9.289 12.56,-16.578 22.07,-21.879 9.51,-5.289 20.08,-7.941 31.72,-7.941 9.9,0 18.97,1.852 27.19,5.563 8.2,3.707 17.24,10.449 27.07,20.23 l 23.18,-24.184 c -13.26,-12.937 -25.8,-21.929 -37.6,-26.929 -11.79,-5.008 -25.27,-7.52 -40.41,-7.52 -27.91,0 -50.76,8.852 -68.53,26.563 -17.79,17.699 -26.68,40.379 -26.68,68.047 0,17.902 4.04,33.812 12.15,47.741 8.08,13.9 19.69,25.09 34.78,33.56 15.1,8.47 31.35,12.7 48.77,12.7 14.81,0 29.06,-3.14 42.8,-9.39 13.71,-6.25 25.52,-15.16 35.44,-26.69"
         style="fill:#351f17;fill-opacity:1;fill-rule:nonzero;stroke:none"
         id="path300" /><path
         d="m 2424.32,1041.78 h 89.12 v -33.32 h -55.18 v -32.589 h 55.18 v -32.84 h -55.18 v -80.812 h -33.94 v 179.561"
         style="fill:#351f17;fill-opacity:1;fill-rule:nonzero;stroke:none"
         id="path302" /><path
         d="m 2628.24,1012.86 c -16.62,0 -30.58,-5.78 -41.91,-17.34 -11.33,-11.551 -16.99,-26.239 -16.99,-44.071 0,-19.847 7.12,-35.558 21.38,-47.109 11.1,-9.039 23.79,-13.551 38.13,-13.551 16.21,0 30.02,5.859 41.42,17.582 11.41,11.711 17.11,26.16 17.11,43.34 0,17.09 -5.74,31.539 -17.22,43.391 -11.49,11.838 -25.45,17.758 -41.92,17.758 z m 0.37,33.45 c 25.41,0 47.25,-9.2 65.53,-27.59 18.28,-18.4 27.42,-40.822 27.42,-67.271 0,-26.199 -9.02,-48.379 -27.05,-66.519 -18.05,-18.149 -39.92,-27.231 -65.66,-27.231 -26.96,0 -49.34,9.321 -67.17,27.961 -17.83,18.629 -26.76,40.77 -26.76,66.41 0,17.168 4.16,32.961 12.46,47.36 8.3,14.4 19.73,25.81 34.26,34.25 14.53,8.42 30.2,12.63 46.97,12.63"
         style="fill:#351f17;fill-opacity:1;fill-rule:nonzero;stroke:none"
         id="path304" /><path
         d="m 2838.2,1012.86 c -16.62,0 -30.58,-5.78 -41.91,-17.34 -11.33,-11.551 -16.99,-26.239 -16.99,-44.071 0,-19.847 7.13,-35.558 21.38,-47.109 11.1,-9.039 23.79,-13.551 38.13,-13.551 16.21,0 30.02,5.859 41.42,17.582 11.41,11.711 17.11,26.16 17.11,43.34 0,17.09 -5.74,31.539 -17.22,43.391 -11.49,11.838 -25.45,17.758 -41.92,17.758 z m 0.37,33.45 c 25.41,0 47.25,-9.2 65.53,-27.59 18.28,-18.4 27.42,-40.822 27.42,-67.271 0,-26.199 -9.02,-48.379 -27.05,-66.519 -18.04,-18.149 -39.92,-27.231 -65.66,-27.231 -26.95,0 -49.34,9.321 -67.17,27.961 -17.83,18.629 -26.76,40.77 -26.76,66.41 0,17.168 4.16,32.961 12.46,47.36 8.3,14.4 19.73,25.81 34.26,34.25 14.53,8.42 30.2,12.63 46.97,12.63"
         style="fill:#351f17;fill-opacity:1;fill-rule:nonzero;stroke:none"
         id="path306" /><path
         d="M 2997.81,1008.83 V 895.551 h 15.86 c 15.63,0 26.97,1.789 34.01,5.371 7.03,3.59 12.79,9.609 17.26,18.09 4.49,8.476 6.72,18.91 6.72,31.289 0,19.058 -5.33,33.847 -16,44.359 -9.59,9.45 -25.02,14.17 -46.25,14.17 z m -33.94,32.95 h 40.51 c 26.09,0 45.48,-3.22 58.16,-9.7 12.69,-6.47 23.14,-16.99 31.35,-31.55 8.22,-14.569 12.32,-31.581 12.32,-51.03 0,-13.828 -2.3,-26.539 -6.89,-38.148 -4.59,-11.602 -10.94,-21.223 -19.03,-28.864 -8.08,-7.66 -16.85,-12.937 -26.29,-15.867 -9.43,-2.93 -25.76,-4.402 -49.02,-4.402 h -41.11 v 179.561"
         style="fill:#351f17;fill-opacity:1;fill-rule:nonzero;stroke:none"
         id="path308" /><path
         d="m 1709.19,828.391 h 25.88 v -90.84 h -17.17 v 74.609 h -18.71 l 10,16.231"
         style="fill:#351f17;fill-opacity:1;fill-rule:nonzero;stroke:none"
         id="path310" /><path
         d="m 1794.76,814.25 c -2.91,0 -5.5,-0.941 -7.77,-2.82 -2.25,-1.871 -3.98,-5.09 -5.17,-9.66 -1.19,-4.571 -1.79,-11.258 -1.79,-20.059 0,-11.492 1.37,-19.441 4.1,-23.813 2.74,-4.398 6.27,-6.578 10.63,-6.578 4.19,0 7.52,2.078 9.99,6.239 2.99,5.023 4.49,13.421 4.49,25.191 0,11.941 -1.34,20.18 -4.03,24.699 -2.7,4.531 -6.18,6.801 -10.45,6.801 z m -0.4,16.422 c 6.63,0 12.34,-1.621 17.13,-4.871 4.8,-3.25 8.51,-8.231 11.12,-14.91 2.61,-6.7 3.92,-16.02 3.92,-27.95 0,-12.07 -1.32,-21.453 -3.98,-28.171 -2.66,-6.711 -6.23,-11.641 -10.71,-14.782 -4.5,-3.148 -10.15,-4.726 -16.99,-4.726 -6.83,0 -12.57,1.578 -17.22,4.758 -4.66,3.171 -8.3,7.98 -10.94,14.441 -2.64,6.461 -3.96,15.668 -3.96,27.617 0,16.672 2.58,28.75 7.73,36.25 5.72,8.231 13.69,12.344 23.9,12.344"
         style="fill:#351f17;fill-opacity:1;fill-rule:nonzero;stroke:none"
         id="path312" /><path
         d="m 1865.6,814.25 c -2.91,0 -5.5,-0.941 -7.77,-2.82 -2.25,-1.871 -3.98,-5.09 -5.17,-9.66 -1.2,-4.571 -1.79,-11.258 -1.79,-20.059 0,-11.492 1.37,-19.441 4.1,-23.813 2.74,-4.398 6.27,-6.578 10.63,-6.578 4.19,0 7.52,2.078 9.99,6.239 2.99,5.023 4.49,13.421 4.49,25.191 0,11.941 -1.34,20.18 -4.04,24.699 -2.69,4.531 -6.17,6.801 -10.44,6.801 z m -0.4,16.422 c 6.63,0 12.34,-1.621 17.13,-4.871 4.8,-3.25 8.51,-8.231 11.12,-14.91 2.61,-6.7 3.92,-16.02 3.92,-27.95 0,-12.07 -1.33,-21.453 -3.98,-28.171 -2.66,-6.711 -6.23,-11.641 -10.71,-14.782 -4.5,-3.148 -10.15,-4.726 -16.99,-4.726 -6.83,0 -12.57,1.578 -17.22,4.758 -4.66,3.171 -8.3,7.98 -10.94,14.441 -2.64,6.461 -3.96,15.668 -3.96,27.617 0,16.672 2.58,28.75 7.73,36.25 5.72,8.231 13.69,12.344 23.9,12.344"
         style="fill:#351f17;fill-opacity:1;fill-rule:nonzero;stroke:none"
         id="path314" /><path
         d="m 1985.35,767.25 c -2.93,0 -5.42,-1.031 -7.46,-3.078 -2.05,-2.051 -3.07,-4.512 -3.07,-7.391 0,-2.871 1.02,-5.332 3.07,-7.39 2.04,-2.051 4.53,-3.071 7.46,-3.071 2.89,0 5.36,1.02 7.4,3.071 2.04,2.058 3.07,4.519 3.07,7.39 0,2.879 -1.03,5.34 -3.07,7.391 -2.04,2.047 -4.51,3.078 -7.4,3.078 z m 0.03,11.242 c 5.97,0 11.08,-2.121 15.31,-6.351 4.25,-4.25 6.37,-9.379 6.37,-15.391 0,-5.961 -2.12,-11.078 -6.37,-15.32 -4.23,-4.239 -9.34,-6.348 -15.31,-6.348 -6,0 -11.12,2.109 -15.34,6.348 -4.23,4.242 -6.34,9.359 -6.34,15.32 0,6.012 2.11,11.141 6.34,15.391 4.22,4.23 9.34,6.351 15.34,6.351 z m -60.21,40.949 c -2.88,0 -5.35,-1.031 -7.38,-3.089 -2.04,-2.051 -3.05,-4.493 -3.05,-7.352 0,-2.898 1.01,-5.379 3.05,-7.43 2.03,-2.05 4.5,-3.07 7.38,-3.07 2.88,0 5.34,1.02 7.38,3.07 2.04,2.051 3.06,4.532 3.06,7.43 0,2.898 -1.02,5.359 -3.06,7.391 -2.04,2.031 -4.5,3.05 -7.38,3.05 z m 59.28,12.969 h 12.47 l -72.06,-101.039 h -12.48 l 61.66,86.758 c -3.72,-0.598 -7.2,-1.07 -10.47,-1.379 -3.26,-0.309 -6.28,-0.461 -9.04,-0.461 -2.85,0 -5.87,0.141 -9.04,0.441 0.91,-2.89 1.36,-5.5 1.36,-7.851 0,-6.008 -2.09,-11.117 -6.27,-15.32 -4.18,-4.2 -9.28,-6.309 -15.29,-6.309 -6.05,0 -11.2,2.109 -15.44,6.309 -4.23,4.203 -6.35,9.281 -6.35,15.261 0,3.86 0.94,7.461 2.84,10.782 1.89,3.296 4.56,5.968 8,8.019 3.43,2.039 6.85,3.051 10.23,3.051 2.55,0 6.07,-0.492 10.57,-1.481 7.95,-1.722 14.95,-2.589 21,-2.589 5.48,0 10.58,0.476 15.31,1.449 4.71,0.961 9.05,2.429 13,4.359"
         style="fill:#351f17;fill-opacity:1;fill-rule:nonzero;stroke:none"
         id="path316" /><path
         d="m 2055.35,828.391 h 17.54 v -34.282 h 30.32 v 34.282 h 17.48 v -90.84 h -17.48 v 39.828 h -30.32 v -39.828 h -17.54 v 90.84"
         style="fill:#351f17;fill-opacity:1;fill-rule:nonzero;stroke:none"
         id="path318" /><path
         d="m 2141.5,828.391 h 49.59 v -16.922 h -32.42 v -16.418 h 32.42 v -16.629 h -32.42 v -23.891 h 32.42 v -16.98 h -49.59 v 90.84"
         style="fill:#351f17;fill-opacity:1;fill-rule:nonzero;stroke:none"
         id="path320" /><path
         d="m 2243.8,804.301 -12.19,-31.192 h 24.31 z m -8.88,24.09 h 17.54 l 34.94,-90.84 h -17.97 l -7.11,18.711 h -37.07 l -7.39,-18.711 h -17.97 l 35.03,90.84"
         style="fill:#351f17;fill-opacity:1;fill-rule:nonzero;stroke:none"
         id="path322" /><path
         d="m 2300.77,828.391 h 17.3 v -74.36 h 25.19 v -16.48 h -42.49 v 90.84"
         style="fill:#351f17;fill-opacity:1;fill-rule:nonzero;stroke:none"
         id="path324" /><path
         d="m 2347.46,828.391 h 50.22 V 811.34 h -16.56 v -73.789 h -17.54 v 73.789 h -16.12 v 17.051"
         style="fill:#351f17;fill-opacity:1;fill-rule:nonzero;stroke:none"
         id="path326" /><path
         d="m 2409.47,828.391 h 17.54 v -34.282 h 30.32 v 34.282 h 17.48 v -90.84 h -17.48 v 39.828 h -30.32 v -39.828 h -17.54 v 90.84"
         style="fill:#351f17;fill-opacity:1;fill-rule:nonzero;stroke:none"
         id="path328" /><path
         d="m 2489.11,828.391 h 18.57 l 16.94,-32.68 16.86,32.68 h 18.33 l -26.58,-51.512 v -39.328 h -17.41 v 39.328 l -26.71,51.512"
         style="fill:#351f17;fill-opacity:1;fill-rule:nonzero;stroke:none"
         id="path330" /></g></g></svg>
